<?xml version="1.0" encoding="UTF-8" standalone="no"?>
<!-- Created with Inkscape (http://www.inkscape.org/) -->

<svg
   width="120mm"
   height="100mm"
   viewBox="0 0 120 100"
   version="1.1"
   id="svg1"
   xml:space="preserve"
   xmlns:inkscape="http://www.inkscape.org/namespaces/inkscape"
   xmlns:sodipodi="http://sodipodi.sourceforge.net/DTD/sodipodi-0.dtd"
   xmlns="http://www.w3.org/2000/svg"
   xmlns:svg="http://www.w3.org/2000/svg"><sodipodi:namedview
     id="namedview1"
     pagecolor="#ffffff"
     bordercolor="#000000"
     borderopacity="0.25"
     inkscape:showpageshadow="2"
     inkscape:pageopacity="0.0"
     inkscape:pagecheckerboard="0"
     inkscape:deskcolor="#d1d1d1"
     inkscape:document-units="mm"><inkscape:page
       x="0"
       y="0"
       width="120"
       height="100"
       id="page2"
       margin="0"
       bleed="0" /></sodipodi:namedview><defs
     id="defs1" /><g
     inkscape:label="Calque 1"
     inkscape:groupmode="layer"
     id="layer1"
     transform="translate(-130)"><path
       style="fill:#0969da;fill-opacity:1"
       d="m 180.97815,81.614896 c -0.51266,-0.43366 -0.6757,-0.560778 -1.06492,-0.830301 -0.3629,-0.2513 -0.72334,-0.533348 -2.14329,-1.677144 -0.23614,-0.19022 -0.61571,-0.471257 -0.84348,-0.624528 -0.22777,-0.153271 -0.70898,-0.516418 -1.06935,-0.806993 -0.36037,-0.290576 -0.84842,-0.683954 -1.08457,-0.874174 -0.23615,-0.19022 -0.61571,-0.471258 -0.84348,-0.624529 -0.22777,-0.15327 -0.70898,-0.516418 -1.06935,-0.806993 -0.36037,-0.290576 -0.84843,-0.683954 -1.08457,-0.874174 -0.23615,-0.19022 -0.61572,-0.471258 -0.84349,-0.624528 -0.22777,-0.153271 -0.7254,-0.529919 -1.10584,-0.836996 -0.38043,-0.307076 -0.74658,-0.602402 -0.81366,-0.656279 -0.0671,-0.05388 -0.37834,-0.288312 -0.69171,-0.520968 -0.57932,-0.430118 -1.77692,-1.346227 -2.57872,-1.972621 -0.24349,-0.19022 -0.58813,-0.44961 -0.76588,-0.576424 -0.17774,-0.126813 -0.65028,-0.48996 -1.05008,-0.806993 -0.3998,-0.317033 -0.93626,-0.732059 -1.19214,-0.922278 -0.25588,-0.19022 -0.52867,-0.398583 -0.6062,-0.463029 -0.0775,-0.06445 -0.53006,-0.407829 -1.00561,-0.763072 -0.47555,-0.355244 -1.07905,-0.821297 -1.34112,-1.035674 -0.26207,-0.214376 -0.62081,-0.493532 -0.7972,-0.620345 -0.1764,-0.126813 -0.377,-0.284155 -0.4458,-0.349649 -0.0688,-0.06549 -0.30664,-0.243846 -0.52857,-0.39634 -0.36289,-0.249357 -0.71733,-0.526355 -2.14329,-1.674992 -0.23614,-0.19022 -0.61571,-0.471257 -0.84348,-0.624528 -0.22777,-0.153271 -0.70898,-0.516418 -1.06935,-0.806994 -0.36037,-0.290575 -0.84842,-0.683954 -1.08457,-0.874173 -0.23615,-0.19022 -0.61571,-0.471258 -0.84348,-0.624529 -0.22777,-0.15327 -0.70898,-0.516418 -1.06935,-0.806993 -0.36037,-0.290576 -0.84843,-0.683954 -1.08458,-0.874174 -0.23614,-0.19022 -0.61571,-0.471258 -0.84348,-0.624529 -0.22777,-0.15327 -0.7254,-0.529918 -1.10584,-0.836995 -0.38044,-0.307076 -0.74658,-0.602402 -0.81366,-0.656279 -0.0671,-0.05388 -0.37834,-0.288312 -0.69171,-0.520968 -0.57933,-0.430118 -1.77692,-1.346227 -2.57872,-1.972621 -0.24349,-0.19022 -0.58813,-0.44961 -0.76588,-0.576424 -0.17774,-0.126813 -0.65028,-0.48996 -1.05008,-0.806993 -0.3998,-0.317033 -0.93626,-0.732059 -1.19214,-0.922278 -0.25588,-0.19022 -0.52867,-0.398583 -0.6062,-0.463029 -0.0775,-0.06445 -0.53006,-0.407829 -1.00561,-0.763072 -0.47555,-0.355244 -1.07905,-0.821297 -1.34112,-1.035674 -0.26207,-0.214376 -0.61553,-0.490297 -0.78547,-0.613156 -0.16995,-0.122859 -0.40481,-0.304432 -0.52192,-0.403497 -0.11711,-0.09906 -0.52378,-0.404352 -0.90371,-0.678418 -0.71462,-0.515493 -0.82436,-0.7047 -0.82703,-1.425915 -8.6e-4,-0.234032 -0.0534,-0.457576 -0.11685,-0.496764 -0.0634,-0.03919 -0.11529,-0.30164 -0.11529,-0.583227 0,-0.378235 0.0452,-0.511978 0.17293,-0.511978 0.13065,0 0.17293,0.140903 0.17293,0.576424 0,0.317033 0.0519,0.576424 0.11528,0.576424 0.0634,0 0.11528,0.171231 0.11528,0.380513 0,0.467608 0.23486,1.000792 0.44136,1.002005 0.0842,4.94e-4 0.35252,0.208412 0.59621,0.462038 0.24368,0.253627 0.50413,0.46114 0.57877,0.46114 0.0746,0 0.2811,0.155634 0.45879,0.345854 0.17769,0.19022 0.38521,0.345854 0.46114,0.345854 0.0759,0 0.28345,0.155635 0.46114,0.345855 0.17769,0.19022 0.3852,0.345854 0.46114,0.345854 0.0759,0 0.28345,0.155634 0.46114,0.345854 0.17769,0.19022 0.38414,0.345855 0.45879,0.345855 0.0746,0 0.33509,0.207512 0.57877,0.461139 0.24369,0.253626 0.50413,0.461139 0.57878,0.461139 0.0746,0 0.28109,0.155634 0.45878,0.345854 0.1777,0.19022 0.38521,0.345855 0.46114,0.345855 0.0759,0 0.28345,0.155634 0.46114,0.345854 0.17769,0.19022 0.38415,0.345854 0.45879,0.345854 0.0746,0 0.33509,0.207513 0.57878,0.46114 0.24368,0.253626 0.50413,0.461139 0.57877,0.461139 0.0746,0 0.2811,0.155634 0.45879,0.345854 0.17769,0.19022 0.3852,0.345854 0.46114,0.345854 0.0759,0 0.28344,0.155635 0.46114,0.345855 0.17769,0.19022 0.38414,0.345854 0.45879,0.345854 0.0746,0 0.33509,0.207513 0.57877,0.461139 0.24368,0.253627 0.50413,0.46114 0.57877,0.46114 0.0747,0 0.2811,0.155634 0.45879,0.345854 0.1777,0.19022 0.38521,0.345854 0.46114,0.345854 0.0759,0 0.28345,0.155635 0.46114,0.345855 0.17769,0.19022 0.38415,0.345854 0.45879,0.345854 0.0746,0 0.33509,0.207513 0.57877,0.461139 0.24369,0.253627 0.50414,0.461139 0.57878,0.461139 0.0746,0 0.2811,0.155635 0.45879,0.345855 0.17769,0.19022 0.3852,0.345854 0.46114,0.345854 0.0759,0 0.28344,0.155634 0.46114,0.345854 0.17769,0.19022 0.38414,0.345855 0.45878,0.345855 0.0747,0 0.33509,0.207512 0.57878,0.461139 0.24368,0.253626 0.50413,0.461139 0.57877,0.461139 0.0747,0 0.2811,0.155635 0.45879,0.345854 0.17769,0.19022 0.38521,0.345855 0.46114,0.345855 0.0759,0 0.28345,0.155634 0.46114,0.345854 0.17769,0.19022 0.38415,0.345854 0.45879,0.345854 0.0746,0 0.33509,0.207513 0.57877,0.46114 0.24369,0.253626 0.50414,0.461139 0.57878,0.461139 0.0746,0 0.28109,0.155634 0.45879,0.345854 0.17769,0.19022 0.3852,0.345855 0.46114,0.345855 0.0759,0 0.28344,0.155634 0.46114,0.345854 0.17769,0.19022 0.38414,0.345854 0.45878,0.345854 0.0746,0 0.33509,0.207513 0.57878,0.461139 0.24368,0.253627 0.50413,0.46114 0.57877,0.46114 0.0746,0 0.2811,0.155634 0.45879,0.345854 0.17769,0.19022 0.38521,0.345854 0.46114,0.345854 0.0759,0 0.28345,0.155635 0.46114,0.345855 0.17769,0.19022 0.3852,0.345854 0.46114,0.345854 0.0759,0 0.28345,0.155634 0.46114,0.345854 0.17769,0.19022 0.38415,0.345855 0.45879,0.345855 0.0746,0 0.33509,0.207512 0.57877,0.461139 0.24369,0.253626 0.50413,0.461139 0.57878,0.461139 0.0746,0 0.28109,0.155635 0.45878,0.345854 0.1777,0.19022 0.38521,0.345855 0.46114,0.345855 0.0759,0 0.28345,0.155634 0.46114,0.345854 0.17769,0.19022 0.38415,0.345855 0.45879,0.345855 0.0746,0 0.33509,0.207512 0.57878,0.461139 0.24368,0.253626 0.50413,0.461139 0.57877,0.461139 0.0746,0 0.2811,0.155634 0.45879,0.345854 0.17769,0.19022 0.3852,0.345855 0.46114,0.345855 0.0759,0 0.28345,0.155634 0.46114,0.345854 0.17769,0.19022 0.38414,0.345854 0.45879,0.345854 0.0746,0 0.33509,0.207513 0.57877,0.461139 0.24368,0.253627 0.50413,0.46114 0.57878,0.46114 0.0746,0 0.28109,0.155634 0.45878,0.345854 0.1777,0.19022 0.38521,0.345854 0.46114,0.345854 0.0759,0 0.28345,0.155635 0.46114,0.345855 0.17769,0.19022 0.38415,0.345854 0.45879,0.345854 0.0746,0 0.33509,0.207513 0.57878,0.461139 0.24368,0.253627 0.50413,0.461139 0.57877,0.461139 0.0746,0 0.2811,0.155635 0.45879,0.345855 0.17769,0.19022 0.3852,0.345854 0.46114,0.345854 0.0759,0 0.28344,0.155635 0.46114,0.345854 0.17769,0.19022 0.38414,0.345855 0.45879,0.345855 0.0746,0 0.33509,0.207512 0.57877,0.461139 0.24368,0.253626 0.50413,0.461139 0.57877,0.461139 0.0746,0 0.2811,0.155635 0.45879,0.345854 0.1777,0.19022 0.38521,0.345855 0.46114,0.345855 0.0759,0 0.28345,0.155634 0.46114,0.345854 0.17769,0.19022 0.38415,0.345855 0.45879,0.345855 0.0746,0 0.33509,0.207512 0.57877,0.461139 0.24369,0.253626 0.50414,0.461139 0.57878,0.461139 0.0746,0 0.2811,0.155634 0.45879,0.345854 0.17769,0.19022 0.3852,0.345855 0.46114,0.345855 0.0759,0 0.28344,0.155634 0.46114,0.345854 0.17769,0.19022 0.38414,0.345854 0.45878,0.345854 0.0746,0 0.33509,0.207513 0.57878,0.461139 0.76932,0.80071 0.80699,0.733195 0.80699,-1.4463 0,-1.871469 -0.005,-1.912775 -0.28297,-2.190411 -0.15563,-0.155634 -0.32951,-0.282971 -0.3864,-0.282971 -0.0569,0 -0.26628,-0.155635 -0.46533,-0.345855 -0.19904,-0.19022 -0.40656,-0.345854 -0.46114,-0.345854 -0.0546,0 -0.26209,-0.155635 -0.46114,-0.345854 -0.19904,-0.19022 -0.40656,-0.345855 -0.46114,-0.345855 -0.0546,0 -0.26209,-0.155634 -0.46113,-0.345854 -0.19905,-0.19022 -0.40656,-0.345855 -0.46114,-0.345855 -0.0546,0 -0.2621,-0.155634 -0.46114,-0.345854 -0.19905,-0.19022 -0.40656,-0.345854 -0.46114,-0.345854 -0.0546,0 -0.26209,-0.155635 -0.46114,-0.345855 -0.19905,-0.19022 -0.40656,-0.345854 -0.46114,-0.345854 -0.0546,0 -0.26209,-0.155634 -0.46114,-0.345854 -0.19905,-0.19022 -0.40656,-0.345855 -0.46114,-0.345855 -0.0546,0 -0.26209,-0.155634 -0.46114,-0.345854 -0.19904,-0.19022 -0.40656,-0.345854 -0.46114,-0.345854 -0.0546,0 -0.26209,-0.155635 -0.46114,-0.345855 -0.19904,-0.19022 -0.40656,-0.345854 -0.46114,-0.345854 -0.0546,0 -0.26209,-0.155635 -0.46113,-0.345855 -0.19905,-0.190219 -0.40656,-0.345854 -0.46114,-0.345854 -0.0546,0 -0.2621,-0.155634 -0.46114,-0.345854 -0.19905,-0.19022 -0.40656,-0.345855 -0.46114,-0.345855 -0.0546,0 -0.26209,-0.155634 -0.46114,-0.345854 -0.19905,-0.19022 -0.40656,-0.345854 -0.46114,-0.345854 -0.0546,0 -0.26209,-0.155635 -0.46114,-0.345855 -0.19905,-0.19022 -0.40656,-0.345854 -0.46114,-0.345854 -0.0546,0 -0.26209,-0.155635 -0.46114,-0.345854 -0.19904,-0.19022 -0.40656,-0.345855 -0.46114,-0.345855 -0.0546,0 -0.26209,-0.155634 -0.46114,-0.345854 -0.19904,-0.19022 -0.40656,-0.345855 -0.46114,-0.345855 -0.0546,0 -0.26209,-0.155634 -0.46113,-0.345854 -0.19905,-0.19022 -0.40656,-0.345854 -0.46114,-0.345854 -0.0546,0 -0.2621,-0.155635 -0.46114,-0.345855 -0.19905,-0.19022 -0.40656,-0.345854 -0.46114,-0.345854 -0.0546,0 -0.26209,-0.155634 -0.46114,-0.345854 -0.19905,-0.19022 -0.40656,-0.345855 -0.46114,-0.345855 -0.0546,0 -0.26209,-0.155634 -0.46114,-0.345854 -0.19905,-0.19022 -0.40656,-0.345854 -0.46114,-0.345854 -0.0546,0 -0.26209,-0.155635 -0.46114,-0.345855 -0.19904,-0.19022 -0.40656,-0.345854 -0.46114,-0.345854 -0.0546,0 -0.26209,-0.155635 -0.46114,-0.345855 -0.19904,-0.190219 -0.40656,-0.345854 -0.46114,-0.345854 -0.0546,0 -0.26209,-0.155634 -0.46113,-0.345854 -0.19905,-0.19022 -0.40656,-0.345855 -0.46114,-0.345855 -0.0546,0 -0.2621,-0.155634 -0.46114,-0.345854 -0.19905,-0.19022 -0.40656,-0.345854 -0.46114,-0.345854 -0.0546,0 -0.26209,-0.155635 -0.46114,-0.345855 -0.19905,-0.19022 -0.40656,-0.345854 -0.46114,-0.345854 -0.0546,0 -0.26209,-0.155635 -0.46114,-0.345854 -0.19905,-0.19022 -0.40656,-0.345855 -0.46114,-0.345855 -0.0546,0 -0.26209,-0.155634 -0.46114,-0.345854 -0.19904,-0.19022 -0.40656,-0.345855 -0.46114,-0.345855 -0.0546,0 -0.26209,-0.155634 -0.46114,-0.345854 -0.19904,-0.19022 -0.40656,-0.345854 -0.46114,-0.345854 -0.0546,0 -0.26209,-0.155635 -0.46113,-0.345855 -0.19905,-0.19022 -0.40656,-0.345854 -0.46114,-0.345854 -0.0546,0 -0.2621,-0.155634 -0.46114,-0.345854 -0.19905,-0.19022 -0.40656,-0.345855 -0.46114,-0.345855 -0.0546,0 -0.26209,-0.155634 -0.46114,-0.345854 -0.19905,-0.19022 -0.40656,-0.345854 -0.46114,-0.345854 -0.0546,0 -0.26209,-0.155635 -0.46114,-0.345855 -0.19905,-0.19022 -0.40656,-0.345854 -0.46114,-0.345854 -0.0546,0 -0.26209,-0.155635 -0.46114,-0.345855 -0.19904,-0.190219 -0.40656,-0.345854 -0.46114,-0.345854 -0.0546,0 -0.26209,-0.155634 -0.46114,-0.345854 -0.19904,-0.19022 -0.40656,-0.345855 -0.46114,-0.345855 -0.0546,0 -0.26209,-0.155634 -0.46113,-0.345854 -0.19905,-0.19022 -0.40656,-0.345854 -0.46114,-0.345854 -0.0546,0 -0.2621,-0.155635 -0.46114,-0.345855 -0.19905,-0.19022 -0.40656,-0.345854 -0.46114,-0.345854 -0.0546,0 -0.26209,-0.155635 -0.46114,-0.345854 -0.19905,-0.19022 -0.40656,-0.345855 -0.46114,-0.345855 -0.0546,0 -0.26209,-0.155634 -0.46114,-0.345854 -0.19905,-0.19022 -0.40656,-0.345855 -0.46114,-0.345855 -0.0546,0 -0.26209,-0.155634 -0.46114,-0.345854 -0.19904,-0.19022 -0.40656,-0.345854 -0.46114,-0.345854 -0.0546,0 -0.26209,-0.155635 -0.46114,-0.345855 -0.19904,-0.19022 -0.40656,-0.345854 -0.46114,-0.345854 -0.0546,0 -0.26209,-0.155634 -0.46113,-0.345854 -0.19905,-0.19022 -0.40656,-0.345855 -0.46114,-0.345855 -0.0546,0 -0.2621,-0.155634 -0.46114,-0.345854 -0.19905,-0.19022 -0.40656,-0.345854 -0.46114,-0.345854 -0.0546,0 -0.26209,-0.155635 -0.46114,-0.345855 -0.19905,-0.19022 -0.40656,-0.345854 -0.46114,-0.345854 -0.0546,0 -0.26209,-0.155635 -0.46114,-0.345855 -0.19905,-0.190219 -0.40656,-0.345854 -0.46114,-0.345854 -0.0546,0 -0.26209,-0.155634 -0.46114,-0.345854 -0.19904,-0.19022 -0.40656,-0.345855 -0.46114,-0.345855 -0.0546,0 -0.26209,-0.155634 -0.46114,-0.345854 -0.19904,-0.19022 -0.40656,-0.345854 -0.46114,-0.345854 -0.0546,0 -0.25049,-0.142665 -0.43535,-0.317034 -0.18487,-0.174368 -0.47789,-0.390647 -0.65117,-0.480619 -0.17327,-0.08997 -0.31504,-0.206699 -0.31504,-0.259391 0,-0.05269 -0.0648,-0.09604 -0.14411,-0.09634 -0.0793,-2.93e-4 -0.30989,-0.155928 -0.51253,-0.345854 -0.20263,-0.189927 -0.41014,-0.345561 -0.46114,-0.345854 -0.051,-2.94e-4 -0.2585,-0.155928 -0.46113,-0.345855 -0.20264,-0.189926 -0.41015,-0.345561 -0.46114,-0.345854 -0.051,-2.94e-4 -0.25851,-0.155928 -0.46114,-0.345855 -0.20264,-0.189926 -0.40606,-0.34532 -0.45206,-0.34532 -0.046,0 -0.17851,-0.08586 -0.29447,-0.190795 -0.20165,-0.182495 -0.21082,-0.164941 -0.21082,0.403496 0,0.599285 -0.18051,0.815362 -0.27977,0.334901 -0.1304,-0.63117 -0.19934,-1.095014 -0.21845,-1.469771 l -0.0206,-0.403387 1.55635,-0.776146 c 0.85599,-0.42688 1.61002,-0.777107 1.67562,-0.778282 0.0656,-0.0012 1.46451,-0.676552 3.1087,-1.500838 1.64418,-0.824287 3.04489,-1.498703 3.11269,-1.498703 0.0678,0 1.4685,-0.674416 3.11269,-1.498702 1.64418,-0.824286 3.04476,-1.498702 3.1124,-1.498702 0.0676,0 1.57223,-0.726294 3.34354,-1.613987 1.77132,-0.887693 3.27591,-1.613987 3.34355,-1.613987 0.0676,0 1.46822,-0.674416 3.1124,-1.498702 1.64419,-0.824287 3.04477,-1.498703 3.11241,-1.498703 0.0676,0 1.57223,-0.726294 3.34354,-1.613987 1.77131,-0.887693 3.27591,-1.613987 3.34355,-1.613987 0.0676,0 1.46821,-0.674416 3.1124,-1.498702 1.64419,-0.824286 3.0431,-1.498721 3.1087,-1.498745 0.0656,-2.3e-5 1.57186,-0.725886 3.34725,-1.613029 1.77538,-0.887143 3.28165,-1.613418 3.34725,-1.613945 0.0656,-5.26e-4 1.46451,-0.675373 3.1087,-1.49966 1.64418,-0.824286 3.0431,-1.49872 3.1087,-1.49874 0.0656,-3e-5 1.57186,-0.72589 3.34725,-1.61303 1.77538,-0.88715 3.2845,-1.61342 3.35359,-1.61395 0.0691,-5.3e-4 0.61691,-0.25108 1.21736,-0.55679 0.67394,-0.34313 1.15528,-0.52317 1.25779,-0.47046 0.0913,0.047 0.42546,0.19847 0.74249,0.33671 0.31703,0.13823 1.01739,0.46037 1.55634,0.71587 0.53896,0.25549 1.08368,0.50339 1.21049,0.5509 0.12682,0.0475 0.67154,0.29763 1.21049,0.55582 0.53896,0.25819 1.23932,0.58002 1.55635,0.71518 0.31703,0.13515 1.01739,0.45837 1.55634,0.71825 0.53896,0.25988 1.08368,0.50871 1.21049,0.55295 0.12682,0.0442 0.67154,0.29169 1.21049,0.549884 0.53896,0.258193 1.23932,0.580024 1.55635,0.71518 0.31703,0.135156 0.99145,0.446474 1.4987,0.691817 0.50725,0.245344 1.18167,0.556147 1.4987,0.690675 0.31704,0.134527 0.8877,0.393789 1.26814,0.576137 0.38044,0.182348 0.9511,0.442205 1.26813,0.577458 0.31703,0.135254 0.99145,0.446538 1.4987,0.691743 0.50725,0.245205 1.12979,0.531663 1.38342,0.636574 0.25362,0.10491 0.85022,0.386428 1.32577,0.625595 0.47555,0.239166 0.99433,0.472474 1.15285,0.518461 0.15852,0.04599 0.80699,0.334192 1.44106,0.640455 0.63407,0.306263 1.41224,0.669346 1.72927,0.806853 0.31704,0.137506 1.01739,0.45905 1.55635,0.714542 0.53895,0.255492 1.08367,0.503399 1.21049,0.550906 0.12681,0.04751 0.67153,0.297624 1.21049,0.555817 0.53895,0.258193 1.23931,0.580025 1.55634,0.715181 0.31704,0.135155 1.01739,0.458368 1.55635,0.71825 0.53895,0.259882 1.08367,0.50871 1.21049,0.552952 0.12681,0.04424 0.67153,0.291689 1.21049,0.549882 0.53896,0.258194 1.23931,0.580025 1.55634,0.715181 0.31704,0.135156 0.99145,0.446474 1.49871,0.691817 0.50725,0.245344 1.18166,0.556147 1.4987,0.690674 0.31703,0.134528 0.88769,0.39379 1.26813,0.576138 0.38044,0.182348 0.9511,0.442204 1.26813,0.577458 0.31704,0.135254 0.99145,0.446652 1.49871,0.691995 1.01717,0.491979 1.98132,0.918542 2.07616,0.918542 0.0336,0 0.25977,0.125361 0.50248,0.278579 l 0.4413,0.278578 -0.15525,0.730164 c -0.15324,0.720729 -0.26234,1.356286 -0.4987,2.9051 -0.12147,0.796033 -0.24698,0.983992 -0.93409,1.398891 -0.40844,0.246632 -0.86662,0.571189 -1.11055,0.786671 -0.14029,0.123927 -0.35335,0.282953 -0.47348,0.353392 -0.52179,0.305973 -1.13137,0.745213 -1.27592,0.919384 -0.0861,0.103734 -0.21996,0.188607 -0.29747,0.188607 -0.0775,0 -0.23485,0.103756 -0.34961,0.230569 -0.11477,0.126814 -0.26873,0.23057 -0.34215,0.23057 -0.0734,0 -0.2826,0.155634 -0.46484,0.345854 -0.18225,0.19022 -0.39142,0.345855 -0.46484,0.345855 -0.0734,0 -0.22739,0.103756 -0.34216,0.230569 -0.11476,0.126814 -0.26873,0.23057 -0.34215,0.23057 -0.0734,0 -0.2826,0.155634 -0.46484,0.345854 -0.18224,0.19022 -0.39142,0.345855 -0.46484,0.345855 -0.0734,0 -0.22739,0.103756 -0.34215,0.230569 -0.11477,0.126813 -0.26874,0.23057 -0.34216,0.23057 -0.0734,0 -0.2826,0.155634 -0.46484,0.345854 -0.18224,0.19022 -0.39142,0.345855 -0.46484,0.345855 -0.0734,0 -0.22739,0.103756 -0.34215,0.230569 -0.11477,0.126813 -0.26874,0.23057 -0.34216,0.23057 -0.0734,0 -0.28259,0.155634 -0.46484,0.345854 -0.18224,0.19022 -0.39142,0.345854 -0.46484,0.345854 -0.0734,0 -0.22738,0.103757 -0.34215,0.23057 -0.11476,0.126813 -0.25399,0.23057 -0.30938,0.23057 -0.0554,0 -0.43496,0.25939 -0.84347,0.576423 -0.73913,0.573626 -0.97992,0.685649 -0.97992,0.455899 0,-0.172928 0.53762,-0.686468 0.71866,-0.686468 0.084,0 0.2275,-0.103756 0.31891,-0.23057 0.0914,-0.126813 0.23767,-0.230569 0.32505,-0.230569 0.0874,0 0.30425,-0.155635 0.48194,-0.345855 0.17769,-0.19022 0.39457,-0.345854 0.48194,-0.345854 0.0874,0 0.23365,-0.103756 0.32505,-0.23057 0.0914,-0.126813 0.23768,-0.230569 0.32505,-0.230569 0.0874,0 0.30425,-0.155635 0.48195,-0.345854 0.17769,-0.19022 0.39456,-0.345855 0.48194,-0.345855 0.0874,0 0.23365,-0.103756 0.32505,-0.230569 0.0914,-0.126814 0.23767,-0.23057 0.32505,-0.23057 0.0874,0 0.30425,-0.155634 0.48194,-0.345854 0.1777,-0.19022 0.39457,-0.345855 0.48195,-0.345855 0.0874,0 0.23364,-0.103756 0.32505,-0.230569 0.0914,-0.126814 0.23767,-0.23057 0.32505,-0.23057 0.0874,0 0.30425,-0.155634 0.48194,-0.345854 0.17769,-0.19022 0.39457,-0.345855 0.48194,-0.345855 0.0874,0 0.23365,-0.103756 0.32505,-0.230569 0.0914,-0.126813 0.23768,-0.23057 0.32506,-0.23057 0.0874,0 0.30425,-0.155634 0.48194,-0.345854 0.17769,-0.19022 0.39456,-0.345855 0.48194,-0.345855 0.0874,0 0.23365,-0.103756 0.32505,-0.230569 0.0914,-0.126813 0.23768,-0.23057 0.32505,-0.23057 0.0874,0 0.30425,-0.155634 0.48194,-0.345854 0.1777,-0.19022 0.39457,-0.345854 0.48195,-0.345854 0.0874,0 0.23365,-0.103757 0.32505,-0.23057 0.0914,-0.126813 0.23767,-0.23057 0.32505,-0.23057 0.0874,0 0.30425,-0.155634 0.48194,-0.345854 0.17769,-0.19022 0.38244,-0.345854 0.45499,-0.345854 0.0725,0 0.25925,-0.127338 0.41489,-0.282972 0.21743,-0.217434 0.28297,-0.404338 0.28297,-0.806994 0,-0.288211 0.0519,-0.524021 0.11528,-0.524021 0.064,0 0.11529,-0.307426 0.11529,-0.691709 0,-0.384283 0.0512,-0.691709 0.11528,-0.691709 0.0634,0 0.11529,-0.207512 0.11529,-0.461139 0,-0.511773 -0.0967,-0.576244 -0.34586,-0.230569 -0.0914,0.126813 -0.24703,0.230569 -0.34585,0.230569 -0.0988,0 -0.25445,0.103756 -0.34585,0.23057 -0.0914,0.126813 -0.24704,0.230569 -0.34586,0.230569 -0.0988,0 -0.25445,0.103757 -0.34585,0.23057 -0.0914,0.126813 -0.23303,0.230569 -0.31471,0.230569 -0.0817,0 -0.31139,0.155635 -0.51043,0.345855 -0.19905,0.19022 -0.42058,0.345854 -0.49229,0.345854 -0.0717,0 -0.20516,0.103756 -0.29656,0.23057 -0.0914,0.126813 -0.24704,0.230569 -0.34585,0.230569 -0.0988,0 -0.25446,0.103757 -0.34586,0.23057 -0.0914,0.126813 -0.23302,0.230569 -0.31471,0.230569 -0.0817,0 -0.31138,0.155635 -0.51043,0.345855 -0.19905,0.19022 -0.43203,0.345854 -0.51773,0.345854 -0.0857,0 -0.15583,0.04311 -0.15583,0.0958 0,0.05269 -0.14267,0.169064 -0.31703,0.258604 -0.17437,0.08954 -0.40094,0.25394 -0.50349,0.365335 -0.10254,0.111394 -0.2597,0.202535 -0.34922,0.202535 -0.0895,0 -0.23756,0.103757 -0.32896,0.23057 -0.0914,0.126813 -0.23303,0.23057 -0.31472,0.23057 -0.0817,0 -0.31138,0.155634 -0.51042,0.345854 -0.19905,0.19022 -0.42058,0.345854 -0.49229,0.345854 -0.0717,0 -0.20516,0.103757 -0.29656,0.23057 -0.0914,0.126813 -0.24704,0.230569 -0.34586,0.230569 -0.0988,0 -0.25445,0.103757 -0.34585,0.23057 -0.0914,0.126813 -0.24704,0.23057 -0.34585,0.23057 -0.0988,0 -0.25446,0.103756 -0.34586,0.230569 -0.0914,0.126813 -0.23302,0.23057 -0.31471,0.23057 -0.0817,0 -0.31138,0.155634 -0.51043,0.345854 -0.19905,0.19022 -0.42057,0.345855 -0.49228,0.345855 -0.0717,0 -0.20516,0.103756 -0.29657,0.230569 -0.0914,0.126813 -0.24703,0.23057 -0.34585,0.23057 -0.0988,0 -0.25445,0.103756 -0.34585,0.230569 -0.0914,0.126814 -0.23303,0.23057 -0.31472,0.23057 -0.0817,0 -0.31138,0.155634 -0.51043,0.345854 -0.19904,0.19022 -0.43202,0.345855 -0.51773,0.345855 -0.0857,0 -0.15583,0.04311 -0.15583,0.0958 0,0.05269 -0.14266,0.169063 -0.31703,0.258603 -0.17437,0.08954 -0.40094,0.253941 -0.50348,0.365335 -0.10255,0.111395 -0.2597,0.202536 -0.34923,0.202536 -0.0895,0 -0.23756,0.103756 -0.32896,0.230569 -0.0914,0.126814 -0.23302,0.23057 -0.31471,0.23057 -0.0817,0 -0.31138,0.155634 -0.51043,0.345854 -0.19905,0.19022 -0.42057,0.345855 -0.49228,0.345855 -0.0717,0 -0.20516,0.103756 -0.29657,0.230569 -0.0914,0.126814 -0.24703,0.23057 -0.34585,0.23057 -0.0988,0 -0.25445,0.103756 -0.34585,0.230569 -0.0914,0.126814 -0.24704,0.23057 -0.34586,0.23057 -0.0988,0 -0.25445,0.103756 -0.34585,0.23057 -0.0914,0.126813 -0.23303,0.230569 -0.31471,0.230569 -0.0817,0 -0.31139,0.155635 -0.51043,0.345855 -0.19905,0.190219 -0.42058,0.345854 -0.49229,0.345854 -0.0717,0 -0.20516,0.103756 -0.29656,0.23057 -0.0914,0.126813 -0.24704,0.230569 -0.34585,0.230569 -0.0988,0 -0.25446,0.103756 -0.34586,0.23057 -0.0914,0.126813 -0.23302,0.230569 -0.31471,0.230569 -0.0817,0 -0.31138,0.155635 -0.51043,0.345855 -0.19905,0.19022 -0.43203,0.345854 -0.51773,0.345854 -0.0857,0 -0.15583,0.04311 -0.15583,0.0958 0,0.05269 -0.14267,0.169064 -0.31703,0.258604 -0.17437,0.08954 -0.40094,0.25394 -0.50349,0.365335 -0.10254,0.111394 -0.2597,0.202535 -0.34922,0.202535 -0.0895,0 -0.23756,0.103757 -0.32896,0.23057 -0.0914,0.126813 -0.23303,0.230569 -0.31472,0.230569 -0.0817,0 -0.31138,0.155635 -0.51043,0.345855 -0.19904,0.19022 -0.42057,0.345854 -0.49228,0.345854 -0.0717,0 -0.20516,0.103756 -0.29656,0.23057 -0.0914,0.126813 -0.24704,0.230569 -0.34586,0.230569 -0.0988,0 -0.25445,0.103757 -0.34585,0.23057 -0.0914,0.126813 -0.24704,0.230569 -0.34585,0.230569 -0.0988,0 -0.25446,0.103757 -0.34586,0.23057 -0.0914,0.126813 -0.23302,0.23057 -0.31471,0.23057 -0.0817,0 -0.31138,0.155634 -0.51043,0.345854 -0.19905,0.19022 -0.42057,0.345854 -0.49228,0.345854 -0.0717,0 -0.20516,0.103757 -0.29657,0.23057 -0.0914,0.126813 -0.24703,0.230569 -0.34585,0.230569 -0.0988,0 -0.25445,0.103757 -0.34585,0.23057 -0.0914,0.126813 -0.24704,0.23057 -0.34586,0.23057 -0.0988,0 -0.25445,0.103756 -0.34585,0.230569 -0.0914,0.126813 -0.23303,0.23057 -0.31471,0.23057 -0.0817,0 -0.31139,0.155634 -0.51043,0.345854 -0.19905,0.19022 -0.42058,0.345855 -0.49229,0.345855 -0.0717,0 -0.20516,0.103756 -0.29656,0.230569 -0.0914,0.126813 -0.24704,0.23057 -0.34585,0.23057 -0.0988,0 -0.25446,0.103756 -0.34586,0.230569 -0.0914,0.126814 -0.23302,0.23057 -0.31471,0.23057 -0.0817,0 -0.31138,0.155634 -0.51043,0.345854 -0.19905,0.19022 -0.42057,0.345855 -0.49228,0.345855 -0.0717,0 -0.20516,0.103756 -0.29657,0.230569 -0.0914,0.126813 -0.24703,0.23057 -0.34585,0.23057 -0.0988,0 -0.25445,0.103756 -0.34585,0.230569 -0.0914,0.126814 -0.24704,0.23057 -0.34586,0.23057 -0.0988,0 -0.25445,0.103756 -0.34585,0.230569 -0.0914,0.126814 -0.23303,0.23057 -0.31471,0.23057 -0.0817,0 -0.31139,0.155634 -0.51043,0.345854 -0.19905,0.19022 -0.42058,0.345855 -0.49229,0.345855 -0.0717,0 -0.20516,0.103756 -0.29656,0.230569 -0.0914,0.126814 -0.24704,0.23057 -0.34585,0.23057 -0.0988,0 -0.25446,0.103756 -0.34586,0.230569 -0.0914,0.126814 -0.24704,0.23057 -0.34585,0.23057 -0.0988,0 -0.25446,0.103756 -0.34586,0.23057 -0.0914,0.126813 -0.23302,0.230569 -0.31471,0.230569 -0.0817,0 -0.31138,0.155635 -0.51043,0.345855 -0.19905,0.190219 -0.42057,0.345854 -0.49228,0.345854 -0.0717,0 -0.20516,0.103756 -0.29657,0.230569 -0.0914,0.126814 -0.24703,0.23057 -0.34585,0.23057 -0.0988,0 -0.25445,0.103756 -0.34585,0.23057 -0.0914,0.126813 -0.23303,0.230569 -0.31472,0.230569 -0.0817,0 -0.31138,0.155635 -0.51043,0.345855 -0.19904,0.190219 -0.42057,0.345854 -0.49228,0.345854 -0.0717,0 -0.20516,0.103756 -0.29656,0.23057 -0.0914,0.126813 -0.24704,0.230569 -0.34586,0.230569 -0.0988,0 -0.25445,0.103756 -0.34585,0.23057 -0.0914,0.126813 -0.24704,0.230569 -0.34585,0.230569 -0.0988,0 -0.25446,0.103757 -0.34586,0.23057 -0.0914,0.126813 -0.23302,0.230569 -0.31471,0.230569 -0.0817,0 -0.31138,0.155635 -0.51043,0.345855 -0.19905,0.19022 -0.42057,0.345854 -0.49228,0.345854 -0.0717,0 -0.20516,0.103756 -0.29657,0.23057 -0.0914,0.126813 -0.24703,0.230569 -0.34585,0.230569 -0.0988,0 -0.25445,0.103757 -0.34585,0.23057 -0.0914,0.126813 -0.24704,0.230569 -0.34586,0.230569 -0.0988,0 -0.25445,0.103757 -0.34585,0.23057 -0.0914,0.126813 -0.23303,0.23057 -0.31471,0.23057 -0.0817,0 -0.31139,0.155634 -0.51043,0.345854 -0.19905,0.19022 -0.42058,0.345854 -0.49229,0.345854 -0.0717,0 -0.20516,0.103757 -0.29656,0.23057 -0.0914,0.126813 -0.24704,0.230569 -0.34585,0.230569 -0.0988,0 -0.25446,0.103757 -0.34586,0.23057 -0.0914,0.126813 -0.23302,0.23057 -0.31471,0.23057 -0.0817,0 -0.31138,0.155634 -0.51043,0.345854 -0.19905,0.19022 -0.42057,0.345854 -0.49228,0.345854 -0.0717,0 -0.20516,0.103757 -0.29657,0.23057 -0.0914,0.126813 -0.24703,0.23057 -0.34585,0.23057 -0.0988,0 -0.25445,0.103756 -0.34585,0.230569 -0.0914,0.126813 -0.24704,0.23057 -0.34586,0.23057 -0.0988,0 -0.25445,0.103756 -0.34585,0.230569 -0.0914,0.126813 -0.23303,0.23057 -0.31472,0.23057 -0.0817,0 -0.31138,0.155634 -0.51042,0.345854 -0.19905,0.19022 -0.42058,0.345855 -0.49229,0.345855 -0.0717,0 -0.20516,0.103756 -0.29656,0.230569 -0.0914,0.126813 -0.24704,0.23057 -0.34586,0.23057 -0.0988,0 -0.25445,0.103756 -0.34585,0.230569 -0.0914,0.126814 -0.24704,0.23057 -0.34585,0.23057 -0.0988,0 -0.25446,0.103756 -0.34586,0.230569 -0.0914,0.126814 -0.23302,0.23057 -0.31471,0.23057 -0.0817,0 -0.31138,0.155634 -0.51043,0.345854 -0.19905,0.19022 -0.42057,0.345855 -0.49228,0.345855 -0.0717,0 -0.20516,0.103756 -0.29657,0.230569 -0.0914,0.126814 -0.24703,0.23057 -0.34585,0.23057 -0.0988,0 -0.25445,0.103756 -0.34585,0.230569 -0.0914,0.126814 -0.23303,0.23057 -0.31472,0.23057 -0.0817,0 -0.31138,0.155634 -0.51043,0.345854 -0.19904,0.19022 -0.43202,0.345855 -0.51773,0.345855 -0.0857,0 -0.15583,0.04311 -0.15583,0.0958 0,0.05269 -0.14266,0.169064 -0.31703,0.258603 -0.17437,0.08954 -0.40094,0.253941 -0.50348,0.365336 -0.10255,0.111394 -0.2597,0.202535 -0.34923,0.202535 -0.0895,0 -0.23756,0.103756 -0.32896,0.23057 -0.0914,0.126813 -0.23302,0.230569 -0.31471,0.230569 -0.0817,0 -0.31138,0.155635 -0.51043,0.345855 -0.19905,0.190219 -0.42057,0.345854 -0.49228,0.345854 -0.0717,0 -0.20516,0.103756 -0.29657,0.23057 -0.0914,0.126813 -0.24703,0.230569 -0.34585,0.230569 -0.0988,0 -0.25445,0.103756 -0.34585,0.23057 -0.0914,0.126813 -0.25849,0.230569 -0.37131,0.230569 -0.18944,0 -0.20512,0.167448 -0.20512,2.190411 0,1.383418 0.0425,2.190411 0.11529,2.190411 0.0634,0 0.11528,-0.05188 0.11528,-0.115285 0,-0.06341 0.0923,-0.115284 0.20512,-0.115284 0.11282,0 0.2799,-0.103757 0.3713,-0.23057 0.0914,-0.126813 0.23768,-0.23057 0.32506,-0.23057 0.0874,0 0.30425,-0.155634 0.48194,-0.345854 0.17769,-0.19022 0.39456,-0.345854 0.48194,-0.345854 0.0874,0 0.23365,-0.103757 0.32505,-0.23057 0.0914,-0.126813 0.23768,-0.230569 0.32505,-0.230569 0.0874,0 0.30425,-0.155635 0.48195,-0.345855 0.17769,-0.19022 0.39456,-0.345854 0.48194,-0.345854 0.0874,0 0.23365,-0.103756 0.32505,-0.23057 0.0914,-0.126813 0.23767,-0.230569 0.32505,-0.230569 0.0874,0 0.30425,-0.155635 0.48194,-0.345855 0.17769,-0.19022 0.39457,-0.345854 0.48195,-0.345854 0.0874,0 0.23364,-0.103756 0.32505,-0.23057 0.0914,-0.126813 0.23767,-0.230569 0.32505,-0.230569 0.0874,0 0.30425,-0.155635 0.48194,-0.345855 0.17769,-0.190219 0.39457,-0.345854 0.48194,-0.345854 0.0874,0 0.23365,-0.103756 0.32505,-0.230569 0.0914,-0.126814 0.23768,-0.23057 0.32505,-0.23057 0.0874,0 0.30425,-0.155635 0.48195,-0.345854 0.17769,-0.19022 0.39456,-0.345855 0.48194,-0.345855 0.0874,0 0.23365,-0.103756 0.32505,-0.230569 0.0914,-0.126814 0.23768,-0.23057 0.32505,-0.23057 0.0874,0 0.30425,-0.155634 0.48194,-0.345854 0.1777,-0.19022 0.39457,-0.345855 0.48195,-0.345855 0.0874,0 0.23365,-0.103756 0.32505,-0.230569 0.0914,-0.126814 0.23767,-0.23057 0.32505,-0.23057 0.0874,0 0.30425,-0.155634 0.48194,-0.345854 0.17769,-0.19022 0.39457,-0.345855 0.48194,-0.345855 0.0874,0 0.23365,-0.103756 0.32505,-0.230569 0.0914,-0.126813 0.23768,-0.23057 0.32506,-0.23057 0.0874,0 0.30425,-0.155634 0.48194,-0.345854 0.17769,-0.19022 0.39456,-0.345854 0.48194,-0.345854 0.0874,0 0.23365,-0.103757 0.32505,-0.23057 0.0914,-0.126813 0.23768,-0.23057 0.32505,-0.23057 0.0874,0 0.30425,-0.155634 0.48195,-0.345854 0.17769,-0.19022 0.39456,-0.345854 0.48194,-0.345854 0.0874,0 0.23365,-0.103757 0.32505,-0.23057 0.0914,-0.126813 0.23767,-0.230569 0.32505,-0.230569 0.0874,0 0.30425,-0.155635 0.48194,-0.345855 0.17769,-0.19022 0.39457,-0.345854 0.48194,-0.345854 0.0874,0 0.23365,-0.103757 0.32506,-0.23057 0.0914,-0.126813 0.23767,-0.230569 0.32505,-0.230569 0.0874,0 0.30425,-0.155635 0.48194,-0.345855 0.17769,-0.19022 0.39457,-0.345854 0.48194,-0.345854 0.0874,0 0.23365,-0.103756 0.32505,-0.23057 0.0914,-0.126813 0.24704,-0.230569 0.34586,-0.230569 0.0988,0 0.25445,-0.103757 0.34585,-0.23057 0.19179,-0.266089 0.46114,-0.306075 0.46114,-0.06846 0,0.136823 -0.71518,0.732208 -1.39575,1.161961 -0.64737,0.408782 -1.10705,0.744743 -1.24279,0.908301 -0.0861,0.103733 -0.20753,0.188606 -0.26987,0.188606 -0.0624,0 -0.26027,0.116726 -0.43983,0.259391 -0.63697,0.506088 -0.91766,0.707157 -1.90934,1.367738 -0.24882,0.165744 -0.52284,0.386227 -0.60893,0.48996 -0.0861,0.103734 -0.20754,0.188607 -0.26988,0.188607 -0.0623,0 -0.26026,0.116726 -0.43982,0.259391 -0.63698,0.506088 -0.91767,0.707157 -1.90935,1.367738 -0.24882,0.165744 -0.52283,0.386226 -0.60892,0.48996 -0.0861,0.103734 -0.20754,0.188607 -0.26988,0.188607 -0.0623,0 -0.26026,0.116726 -0.43983,0.25939 -0.63697,0.506088 -0.91766,0.707158 -1.90934,1.367738 -0.24882,0.165745 -0.52284,0.386227 -0.60893,0.489961 -0.0861,0.103733 -0.20754,0.188606 -0.26988,0.188606 -0.0623,0 -0.26026,0.116726 -0.43982,0.259391 -0.63697,0.506088 -0.91767,0.707158 -1.90934,1.367738 -0.24882,0.165745 -0.52284,0.386227 -0.60893,0.489961 -0.0861,0.103733 -0.21996,0.188606 -0.29748,0.188606 -0.0775,0 -0.23484,0.103757 -0.3496,0.23057 -0.11477,0.126813 -0.26874,0.230569 -0.34216,0.230569 -0.0734,0 -0.28259,0.155635 -0.46484,0.345855 -0.18224,0.19022 -0.39142,0.345854 -0.46484,0.345854 -0.0734,0 -0.22739,0.103756 -0.34215,0.23057 -0.11476,0.126813 -0.26873,0.230569 -0.34215,0.230569 -0.0734,0 -0.2826,0.155635 -0.46484,0.345855 -0.18225,0.19022 -0.37901,0.345854 -0.43725,0.345854 -0.0582,0 -0.26003,0.129695 -0.44841,0.288212 -0.40738,0.342785 -0.44988,0.347629 -0.75862,0.08646 z m 0.46294,-5.476028 c 0.14113,-0.07926 0.34105,-0.234893 0.44428,-0.345854 0.10322,-0.110962 0.26093,-0.201749 0.35045,-0.201749 0.0895,0 0.23756,-0.103756 0.32896,-0.230569 0.0914,-0.126813 0.24704,-0.23057 0.34586,-0.23057 0.0988,0 0.25445,-0.103756 0.34585,-0.230569 0.0914,-0.126814 0.23303,-0.23057 0.31471,-0.23057 0.0817,0 0.31139,-0.155634 0.51043,-0.345854 0.19905,-0.19022 0.42058,-0.345855 0.49229,-0.345855 0.0717,0 0.20516,-0.103756 0.29656,-0.230569 0.0914,-0.126814 0.24704,-0.23057 0.34585,-0.23057 0.0988,0 0.25446,-0.103756 0.34586,-0.230569 0.0914,-0.126814 0.23302,-0.23057 0.31471,-0.23057 0.0817,0 0.31138,-0.155634 0.51043,-0.345854 0.19905,-0.19022 0.43203,-0.345855 0.51773,-0.345855 0.0857,0 0.15583,-0.04311 0.15583,-0.0958 0,-0.05269 0.14267,-0.169064 0.31703,-0.258603 0.17437,-0.08954 0.40094,-0.253941 0.50349,-0.365335 0.10254,-0.111395 0.2597,-0.202536 0.34922,-0.202536 0.0895,0 0.23756,-0.103756 0.32896,-0.23057 0.0914,-0.126813 0.23303,-0.230569 0.31472,-0.230569 0.0817,0 0.31138,-0.155635 0.51042,-0.345855 0.19905,-0.190219 0.42058,-0.345854 0.49229,-0.345854 0.0717,0 0.20516,-0.103756 0.29656,-0.230569 0.0914,-0.126814 0.24704,-0.23057 0.34586,-0.23057 0.0988,0 0.25445,-0.103756 0.34585,-0.23057 0.0914,-0.126813 0.24704,-0.230569 0.34585,-0.230569 0.0988,0 0.25446,-0.103757 0.34586,-0.23057 0.0914,-0.126813 0.23302,-0.230569 0.31471,-0.230569 0.0817,0 0.31138,-0.155635 0.51043,-0.345855 0.19905,-0.19022 0.42057,-0.345854 0.49228,-0.345854 0.0717,0 0.20516,-0.103756 0.29657,-0.23057 0.0914,-0.126813 0.24703,-0.230569 0.34585,-0.230569 0.0988,0 0.25445,-0.103757 0.34585,-0.23057 0.0914,-0.126813 0.23303,-0.230569 0.31472,-0.230569 0.0817,0 0.31138,-0.155635 0.51043,-0.345855 0.19904,-0.19022 0.43202,-0.345854 0.51773,-0.345854 0.0857,0 0.15583,-0.04311 0.15583,-0.0958 0,-0.05269 0.14266,-0.169064 0.31703,-0.258604 0.17437,-0.08954 0.40094,-0.25394 0.50348,-0.365335 0.10255,-0.111394 0.2597,-0.202535 0.34923,-0.202535 0.0895,0 0.23756,-0.103757 0.32896,-0.23057 0.0914,-0.126813 0.23302,-0.23057 0.31471,-0.23057 0.0817,0 0.31138,-0.155634 0.51043,-0.345854 0.19905,-0.19022 0.42057,-0.345854 0.49228,-0.345854 0.0717,0 0.20516,-0.103757 0.29657,-0.23057 0.0914,-0.126813 0.24703,-0.230569 0.34585,-0.230569 0.0988,0 0.25445,-0.103757 0.34585,-0.23057 0.0914,-0.126813 0.24704,-0.23057 0.34586,-0.23057 0.0988,0 0.25445,-0.103756 0.34585,-0.230569 0.0914,-0.126813 0.23303,-0.23057 0.31471,-0.23057 0.0817,0 0.31139,-0.155634 0.51043,-0.345854 0.19905,-0.19022 0.42058,-0.345854 0.49229,-0.345854 0.0717,0 0.20516,-0.103757 0.29656,-0.23057 0.0914,-0.126813 0.24704,-0.23057 0.34585,-0.23057 0.0988,0 0.25446,-0.103756 0.34586,-0.230569 0.0914,-0.126813 0.23302,-0.23057 0.31471,-0.23057 0.0817,0 0.31138,-0.155634 0.51043,-0.345854 0.19905,-0.19022 0.43203,-0.345855 0.51773,-0.345855 0.0857,0 0.15583,-0.04311 0.15583,-0.0958 0,-0.05269 0.14267,-0.169063 0.31703,-0.258603 0.17437,-0.08954 0.40094,-0.253941 0.50349,-0.365335 0.10254,-0.111395 0.2597,-0.202536 0.34922,-0.202536 0.0895,0 0.23756,-0.103756 0.32896,-0.230569 0.0914,-0.126814 0.23303,-0.23057 0.31472,-0.23057 0.0817,0 0.31138,-0.155634 0.51043,-0.345854 0.19904,-0.19022 0.42057,-0.345855 0.49228,-0.345855 0.0717,0 0.20516,-0.103756 0.29656,-0.230569 0.0914,-0.126814 0.24704,-0.23057 0.34586,-0.23057 0.0988,0 0.25445,-0.103756 0.34585,-0.230569 0.0914,-0.126814 0.24704,-0.23057 0.34585,-0.23057 0.0988,0 0.25446,-0.103756 0.34586,-0.23057 0.0914,-0.126813 0.23302,-0.230569 0.31471,-0.230569 0.0817,0 0.31138,-0.155635 0.51043,-0.345855 0.19905,-0.190219 0.42057,-0.345854 0.49228,-0.345854 0.0717,0 0.20516,-0.103756 0.29657,-0.230569 0.0914,-0.126814 0.24703,-0.23057 0.34585,-0.23057 0.0988,0 0.25445,-0.103756 0.34585,-0.23057 0.0914,-0.126813 0.23303,-0.230569 0.31472,-0.230569 0.0817,0 0.31138,-0.155635 0.51043,-0.345855 0.19904,-0.190219 0.43202,-0.345854 0.51773,-0.345854 0.0857,0 0.15583,-0.04311 0.15583,-0.0958 0,-0.05269 0.14266,-0.169064 0.31703,-0.258604 0.17437,-0.08954 0.40094,-0.25394 0.50348,-0.365335 0.10255,-0.111394 0.2597,-0.202535 0.34923,-0.202535 0.0895,0 0.23756,-0.103757 0.32896,-0.23057 0.0914,-0.126813 0.23302,-0.230569 0.31471,-0.230569 0.0817,0 0.31138,-0.155635 0.51043,-0.345855 0.19905,-0.19022 0.42057,-0.345854 0.49228,-0.345854 0.0717,0 0.20516,-0.103756 0.29657,-0.23057 0.0914,-0.126813 0.24703,-0.230569 0.34585,-0.230569 0.0988,0 0.25445,-0.103757 0.34585,-0.23057 0.0914,-0.126813 0.24704,-0.230569 0.34586,-0.230569 0.0988,0 0.25445,-0.103757 0.34585,-0.23057 0.0914,-0.126813 0.23303,-0.23057 0.31472,-0.23057 0.0817,0 0.31138,-0.155634 0.51042,-0.345854 0.19905,-0.19022 0.42058,-0.345854 0.49229,-0.345854 0.0717,0 0.20516,-0.103757 0.29656,-0.23057 0.0914,-0.126813 0.24704,-0.230569 0.34586,-0.230569 0.0988,0 0.25445,-0.103757 0.34585,-0.23057 0.0914,-0.126813 0.24704,-0.23057 0.34585,-0.23057 0.0988,0 0.25446,-0.103756 0.34586,-0.230569 0.0914,-0.126813 0.23302,-0.23057 0.31471,-0.23057 0.0817,0 0.31138,-0.155634 0.51043,-0.345854 0.19905,-0.19022 0.42057,-0.345854 0.49228,-0.345854 0.0717,0 0.20516,-0.103757 0.29657,-0.23057 0.0914,-0.126813 0.24703,-0.23057 0.34585,-0.23057 0.0988,0 0.25445,-0.103756 0.34585,-0.230569 0.0914,-0.126813 0.23303,-0.23057 0.31472,-0.23057 0.0817,0 0.31138,-0.155634 0.51043,-0.345854 0.19904,-0.19022 0.42057,-0.345854 0.49228,-0.345854 0.0717,0 0.20516,-0.103757 0.29656,-0.23057 0.0914,-0.126813 0.24704,-0.23057 0.34586,-0.23057 0.0988,0 0.25445,-0.103756 0.34585,-0.230569 0.0914,-0.126813 0.24704,-0.23057 0.34585,-0.23057 0.0988,0 0.25446,-0.103756 0.34586,-0.230569 0.0914,-0.126814 0.23302,-0.23057 0.31471,-0.23057 0.0817,0 0.31138,-0.155634 0.51043,-0.345854 0.19905,-0.19022 0.42057,-0.345855 0.49228,-0.345855 0.0717,0 0.20516,-0.103756 0.29657,-0.230569 0.0914,-0.126814 0.24703,-0.23057 0.34585,-0.23057 0.0988,0 0.25445,-0.103756 0.34585,-0.230569 0.0914,-0.126814 0.24704,-0.23057 0.34586,-0.23057 0.0988,0 0.25445,-0.103756 0.34585,-0.23057 0.0914,-0.126813 0.23303,-0.230569 0.31471,-0.230569 0.0817,0 0.31139,-0.155635 0.51043,-0.345854 0.19905,-0.19022 0.42058,-0.345855 0.49229,-0.345855 0.0717,0 0.20516,-0.103756 0.29656,-0.230569 0.0914,-0.126814 0.24704,-0.23057 0.34585,-0.23057 0.0988,0 0.25446,-0.103756 0.34586,-0.23057 0.0914,-0.126813 0.23302,-0.230569 0.31471,-0.230569 0.0817,0 0.31138,-0.155635 0.51043,-0.345855 0.19905,-0.190219 0.42057,-0.345854 0.49228,-0.345854 0.0717,0 0.20516,-0.103756 0.29657,-0.230569 0.0914,-0.126814 0.24703,-0.23057 0.34585,-0.23057 0.0988,0 0.25445,-0.103756 0.34586,-0.23057 0.0914,-0.126813 0.24703,-0.230569 0.34585,-0.230569 0.0988,0 0.25445,-0.103757 0.34585,-0.23057 0.0914,-0.126813 0.23303,-0.230569 0.31472,-0.230569 0.0817,0 0.31138,-0.155635 0.51042,-0.345855 0.19905,-0.19022 0.42058,-0.345854 0.49229,-0.345854 0.0717,0 0.20516,-0.103756 0.29656,-0.23057 0.0914,-0.126813 0.24704,-0.230569 0.34586,-0.230569 0.0988,0 0.25445,-0.103757 0.34585,-0.23057 0.0914,-0.126813 0.24704,-0.230569 0.34585,-0.230569 0.0988,0 0.25446,-0.103757 0.34586,-0.23057 0.0914,-0.126813 0.23302,-0.23057 0.31471,-0.23057 0.0817,0 0.31138,-0.155634 0.51043,-0.345854 0.19905,-0.19022 0.42057,-0.345854 0.49228,-0.345854 0.0717,0 0.20516,-0.103757 0.29657,-0.23057 0.0914,-0.126813 0.24703,-0.230569 0.34585,-0.230569 0.0988,0 0.25445,-0.103757 0.34585,-0.23057 0.0914,-0.126813 0.23303,-0.23057 0.31472,-0.23057 0.0817,0 0.31138,-0.155634 0.51043,-0.345854 0.19904,-0.19022 0.42057,-0.345854 0.49228,-0.345854 0.0717,0 0.20516,-0.103757 0.29656,-0.23057 0.0914,-0.126813 0.24704,-0.230569 0.34586,-0.230569 0.0988,0 0.25445,-0.103757 0.34585,-0.23057 0.0914,-0.126813 0.24704,-0.23057 0.34585,-0.23057 0.0988,0 0.25446,-0.103756 0.34586,-0.230569 0.0914,-0.126813 0.23302,-0.23057 0.31471,-0.23057 0.0817,0 0.31138,-0.155634 0.51043,-0.345854 0.19905,-0.19022 0.42057,-0.345854 0.49228,-0.345854 0.0717,0 0.20516,-0.103757 0.29657,-0.23057 0.0914,-0.126813 0.23943,-0.23057 0.32896,-0.23057 0.20401,0 0.61006,-0.456053 0.52648,-0.591304 -0.0341,-0.05522 -0.16275,-0.100404 -0.28582,-0.100404 -0.12308,0 -0.22377,-0.05188 -0.22377,-0.115285 0,-0.06341 -0.10376,-0.115285 -0.23057,-0.115285 -0.12681,0 -0.23057,-0.05188 -0.23057,-0.115285 0,-0.06341 -0.10376,-0.115285 -0.23057,-0.115285 -0.12681,0 -0.23057,-0.05188 -0.23057,-0.115284 0,-0.06341 -0.10218,-0.115285 -0.22706,-0.115285 -0.12489,0 -0.41179,-0.103756 -0.63757,-0.23057 -0.22578,-0.126813 -0.48675,-0.230569 -0.57993,-0.230569 -0.0932,0 -0.16943,-0.05188 -0.16943,-0.115285 0,-0.06341 -0.10375,-0.115285 -0.23056,-0.115285 -0.12682,0 -0.23057,-0.05188 -0.23057,-0.115285 0,-0.06341 -0.10376,-0.115284 -0.23057,-0.115284 -0.12682,0 -0.23057,-0.05188 -0.23057,-0.115285 0,-0.06341 -0.10376,-0.115285 -0.23057,-0.115285 -0.12682,0 -0.23057,-0.05188 -0.23057,-0.115285 0,-0.06341 -0.10218,-0.115285 -0.22707,-0.115285 -0.12488,0 -0.41179,-0.103756 -0.63757,-0.230569 -0.22578,-0.126813 -0.48675,-0.23057 -0.57993,-0.23057 -0.0932,0 -0.16942,-0.05188 -0.16942,-0.115284 0,-0.06341 -0.10376,-0.115285 -0.23057,-0.115285 -0.12681,0 -0.23057,-0.05188 -0.23057,-0.115285 0,-0.06341 -0.10376,-0.115285 -0.23057,-0.115285 -0.12681,0 -0.23057,-0.05188 -0.23057,-0.115285 0,-0.06341 -0.10218,-0.115284 -0.22706,-0.115284 -0.12489,0 -0.41179,-0.103757 -0.63757,-0.23057 -0.22578,-0.126813 -0.48675,-0.23057 -0.57993,-0.23057 -0.0932,0 -0.16943,-0.05188 -0.16943,-0.115284 0,-0.06341 -0.10375,-0.115285 -0.23056,-0.115285 -0.12682,0 -0.23057,-0.05188 -0.23057,-0.115285 0,-0.06341 -0.10376,-0.115285 -0.23057,-0.115285 -0.12682,0 -0.23057,-0.05188 -0.23057,-0.115285 0,-0.06341 -0.10376,-0.115284 -0.23057,-0.115284 -0.12682,0 -0.23057,-0.05188 -0.23057,-0.115285 0,-0.06341 -0.10218,-0.115285 -0.22707,-0.115285 -0.12488,0 -0.41179,-0.103756 -0.63757,-0.230569 -0.22578,-0.126814 -0.48675,-0.23057 -0.57993,-0.23057 -0.0932,0 -0.16942,-0.05188 -0.16942,-0.115285 0,-0.06341 -0.10376,-0.115285 -0.23057,-0.115285 -0.12681,0 -0.23057,-0.05188 -0.23057,-0.115284 0,-0.06341 -0.10376,-0.115285 -0.23057,-0.115285 -0.12681,0 -0.23057,-0.05188 -0.23057,-0.115285 0,-0.06341 -0.10375,-0.115285 -0.23057,-0.115285 -0.12681,0 -0.23057,-0.05188 -0.23057,-0.115285 0,-0.06341 -0.10218,-0.115284 -0.22706,-0.115284 -0.12488,0 -0.41179,-0.103757 -0.63757,-0.23057 -0.22578,-0.126813 -0.48675,-0.230569 -0.57993,-0.230569 -0.0932,0 -0.16942,-0.05188 -0.16942,-0.115285 0,-0.06341 -0.10376,-0.115285 -0.23057,-0.115285 -0.12682,0 -0.23057,-0.05188 -0.23057,-0.115285 0,-0.06341 -0.10376,-0.115285 -0.23057,-0.115285 -0.12682,0 -0.23057,-0.05188 -0.23057,-0.115284 0,-0.06341 -0.10218,-0.115285 -0.22707,-0.115285 -0.12488,0 -0.41179,-0.103757 -0.63757,-0.23057 -0.22578,-0.126813 -0.48675,-0.230569 -0.57993,-0.230569 -0.0932,0 -0.16942,-0.05188 -0.16942,-0.115285 0,-0.06341 -0.10376,-0.115285 -0.23057,-0.115285 -0.12681,0 -0.23057,-0.05188 -0.23057,-0.115285 0,-0.06341 -0.10376,-0.115285 -0.23057,-0.115285 -0.12681,0 -0.23057,-0.05188 -0.23057,-0.115284 0,-0.06341 -0.10375,-0.115285 -0.23057,-0.115285 -0.12681,0 -0.23057,-0.05188 -0.23057,-0.115285 0,-0.06341 -0.10218,-0.115285 -0.22706,-0.115285 -0.12489,0 -0.41179,-0.103756 -0.63757,-0.230569 -0.22578,-0.126814 -0.48675,-0.23057 -0.57993,-0.23057 -0.0932,0 -0.16942,-0.05188 -0.16942,-0.115285 0,-0.06341 -0.10376,-0.115284 -0.23057,-0.115284 -0.12682,0 -0.23057,-0.05188 -0.23057,-0.115285 0,-0.06341 -0.10376,-0.115285 -0.23057,-0.115285 -0.12682,0 -0.23057,-0.05188 -0.23057,-0.115285 0,-0.06341 -0.10218,-0.115285 -0.22707,-0.115285 -0.12488,0 -0.41179,-0.103756 -0.63757,-0.230569 -0.22578,-0.126813 -0.48675,-0.23057 -0.57993,-0.23057 -0.0932,0 -0.16942,-0.05188 -0.16942,-0.115284 0,-0.06341 -0.10376,-0.115285 -0.23057,-0.115285 -0.12681,0 -0.23057,-0.05188 -0.23057,-0.115285 0,-0.06341 -0.10376,-0.115285 -0.23057,-0.115285 -0.12681,0 -0.23057,-0.05188 -0.23057,-0.115285 0,-0.06341 -0.10375,-0.115284 -0.23057,-0.115284 -0.12681,0 -0.23057,-0.05188 -0.23057,-0.115285 0,-0.06341 -0.10218,-0.115285 -0.22706,-0.115285 -0.12489,0 -0.41179,-0.103756 -0.63757,-0.23057 -0.22578,-0.126813 -0.48675,-0.230569 -0.57993,-0.230569 -0.0932,0 -0.16942,-0.05188 -0.16942,-0.115285 0,-0.06341 -0.10376,-0.115285 -0.23057,-0.115285 -0.12682,0 -0.23057,-0.05188 -0.23057,-0.115285 0,-0.06341 -0.10376,-0.115284 -0.23057,-0.115284 -0.12682,0 -0.23057,-0.05188 -0.23057,-0.115285 0,-0.06341 -0.10218,-0.115285 -0.22707,-0.115285 -0.12488,0 -0.41179,-0.103756 -0.63757,-0.230569 -0.22578,-0.126814 -0.48675,-0.23057 -0.57993,-0.23057 -0.0932,0 -0.16942,-0.05188 -0.16942,-0.115285 0,-0.06341 -0.10376,-0.115285 -0.23057,-0.115285 -0.12681,0 -0.23057,-0.05188 -0.23057,-0.115284 0,-0.06341 -0.10376,-0.115285 -0.23057,-0.115285 -0.12681,0 -0.23057,-0.05188 -0.23057,-0.115285 0,-0.06341 -0.10375,-0.115285 -0.23057,-0.115285 -0.12681,0 -0.23057,-0.05188 -0.23057,-0.115285 0,-0.06341 -0.10218,-0.115284 -0.22706,-0.115284 -0.12489,0 -0.41179,-0.103757 -0.63757,-0.23057 -0.22578,-0.126813 -0.48675,-0.230569 -0.57993,-0.230569 -0.0932,0 -0.16942,-0.05188 -0.16942,-0.115285 0,-0.06341 -0.10376,-0.115285 -0.23057,-0.115285 -0.12682,0 -0.23057,-0.05188 -0.23057,-0.115285 0,-0.06341 -0.10376,-0.115285 -0.23057,-0.115285 -0.12682,0 -0.23057,-0.05188 -0.23057,-0.115284 0,-0.06341 -0.10218,-0.115285 -0.22707,-0.115285 -0.12488,0 -0.41179,-0.103757 -0.63757,-0.23057 -0.22578,-0.126813 -0.48675,-0.230569 -0.57993,-0.230569 -0.0932,0 -0.16942,-0.05188 -0.16942,-0.115285 0,-0.06341 -0.10376,-0.115285 -0.23057,-0.115285 -0.12681,0 -0.23057,-0.05188 -0.23057,-0.115285 0,-0.06341 -0.10376,-0.115285 -0.23057,-0.115285 -0.12681,0 -0.23057,-0.05188 -0.23057,-0.115284 0,-0.06341 -0.10375,-0.115285 -0.23057,-0.115285 -0.12681,0 -0.23057,-0.05188 -0.23057,-0.115285 0,-0.06341 -0.10218,-0.115285 -0.22706,-0.115285 -0.12489,0 -0.41179,-0.103756 -0.63757,-0.230569 -0.22578,-0.126814 -0.48675,-0.23057 -0.57993,-0.23057 -0.0932,0 -0.16942,-0.05188 -0.16942,-0.115285 0,-0.06341 -0.10376,-0.115284 -0.23057,-0.115284 -0.12682,0 -0.23057,-0.05188 -0.23057,-0.115283 0,-0.0634 -0.10376,-0.11529 -0.23057,-0.11529 -0.12682,0 -0.23057,-0.0519 -0.23057,-0.11528 0,-0.0634 -0.10376,-0.11529 -0.23057,-0.11529 -0.12682,0 -0.23057,-0.0519 -0.23057,-0.11528 0,-0.0634 -0.12664,-0.11529 -0.28141,-0.11529 -0.15477,0 -0.31347,-0.0519 -0.35266,-0.11528 -0.0392,-0.0634 -0.17194,-0.11529 -0.29501,-0.11529 -0.12308,0 -0.22377,-0.0519 -0.22377,-0.11528 0,-0.0634 -0.10376,-0.11529 -0.23057,-0.11529 -0.12681,0 -0.23057,-0.0519 -0.23057,-0.11528 0,-0.0634 -0.10376,-0.11528 -0.23057,-0.11528 -0.12681,0 -0.23057,-0.0519 -0.23057,-0.11529 0,-0.0634 -0.10375,-0.11528 -0.23057,-0.11528 -0.12681,0 -0.23057,-0.0519 -0.23057,-0.11529 0,-0.0634 -0.10218,-0.11528 -0.22706,-0.11528 -0.12489,0 -0.41179,-0.10376 -0.63757,-0.23057 -0.22578,-0.12682 -0.48675,-0.23057 -0.57993,-0.23057 -0.0932,0 -0.16942,-0.0519 -0.16942,-0.11529 0,-0.0634 -0.10376,-0.11528 -0.23057,-0.11528 -0.12682,0 -0.23057,-0.0519 -0.23057,-0.11529 0,-0.0634 -0.10376,-0.11528 -0.23057,-0.11528 -0.12682,0 -0.23057,-0.0519 -0.23057,-0.11529 0,-0.0634 -0.10376,-0.11528 -0.23057,-0.11528 -0.12682,0 -0.23057,-0.0519 -0.23057,-0.11529 0,-0.0634 -0.10218,-0.11528 -0.22707,-0.11528 -0.12488,0 -0.41179,-0.10376 -0.63757,-0.23057 -0.22578,-0.12681 -0.48675,-0.23057 -0.57993,-0.23057 -0.0932,0 -0.16942,-0.0519 -0.16942,-0.11529 0,-0.0634 -0.10376,-0.11528 -0.23057,-0.11528 -0.12681,0 -0.23057,-0.0519 -0.23057,-0.11528 0,-0.0634 -0.20751,-0.11529 -0.46114,-0.11529 -0.25362,0 -0.46114,0.0519 -0.46114,0.11529 0,0.0634 -0.10375,0.11528 -0.23057,0.11528 -0.12681,0 -0.23057,0.0519 -0.23057,0.11528 0,0.0634 -0.10375,0.11529 -0.23057,0.11529 -0.12681,0 -0.23057,0.0519 -0.23057,0.11528 0,0.0634 -0.10375,0.11529 -0.23056,0.11529 -0.12682,0 -0.23057,0.0519 -0.23057,0.11528 0,0.0634 -0.10376,0.11529 -0.23057,0.11529 -0.12682,0 -0.23057,0.0519 -0.23057,0.11528 0,0.0634 -0.15564,0.11529 -0.34586,0.11529 -0.19022,0 -0.34585,0.0519 -0.34585,0.11528 0,0.0634 -0.10376,0.11529 -0.23057,0.11529 -0.12682,0 -0.23057,0.0519 -0.23057,0.11528 0,0.0634 -0.10376,0.11529 -0.23057,0.11529 -0.12681,0 -0.23057,0.0519 -0.23057,0.11528 0,0.0634 -0.10376,0.11529 -0.23057,0.11529 -0.12681,0 -0.23057,0.0519 -0.23057,0.11528 0,0.0634 -0.10376,0.11529 -0.23057,0.11529 -0.12681,0 -0.23057,0.0519 -0.23057,0.11528 0,0.0634 -0.10376,0.11529 -0.23057,0.11529 -0.12681,0 -0.23057,0.0519 -0.23057,0.11528 0,0.0634 -0.10375,0.11529 -0.23057,0.11529 -0.12681,0 -0.23057,0.0519 -0.23057,0.11528 0,0.0634 -0.10375,0.11529 -0.23057,0.11529 -0.12681,0 -0.23057,0.0519 -0.23057,0.11528 0,0.0634 -0.10375,0.11528 -0.23057,0.11528 -0.12681,0 -0.23057,0.0519 -0.23057,0.11529 0,0.0634 -0.10375,0.11528 -0.23057,0.11528 -0.12681,0 -0.23056,0.0519 -0.23056,0.11529 0,0.0634 -0.10376,0.11528 -0.23057,0.11528 -0.12682,0 -0.23057,0.0519 -0.23057,0.11529 0,0.0634 -0.10376,0.11528 -0.23057,0.11528 -0.12682,0 -0.23057,0.0519 -0.23057,0.11529 0,0.0634 -0.10376,0.11528 -0.23057,0.11528 -0.12682,0 -0.23057,0.0519 -0.23057,0.11529 0,0.0634 -0.15564,0.115283 -0.34586,0.115283 -0.19022,0 -0.34585,0.05188 -0.34585,0.115284 0,0.06341 -0.10376,0.115285 -0.23057,0.115285 -0.12681,0 -0.23057,0.05188 -0.23057,0.115285 0,0.06341 -0.10376,0.115285 -0.23057,0.115285 -0.12681,0 -0.23057,0.05188 -0.23057,0.115285 0,0.06341 -0.10376,0.115284 -0.23057,0.115284 -0.12681,0 -0.23057,0.05188 -0.23057,0.115285 0,0.06341 -0.10375,0.115285 -0.23057,0.115285 -0.12681,0 -0.23057,0.05188 -0.23057,0.115285 0,0.06341 -0.10375,0.115284 -0.23057,0.115284 -0.12681,0 -0.23057,0.05188 -0.23057,0.115285 0,0.06341 -0.10375,0.115285 -0.23057,0.115285 -0.12681,0 -0.23057,0.05188 -0.23057,0.115285 0,0.06341 -0.10375,0.115285 -0.23057,0.115285 -0.12681,0 -0.23057,0.05188 -0.23057,0.115284 0,0.06341 -0.10375,0.115285 -0.23056,0.115285 -0.12682,0 -0.23057,0.05188 -0.23057,0.115285 0,0.06341 -0.10376,0.115285 -0.23057,0.115285 -0.12682,0 -0.23057,0.05188 -0.23057,0.115285 0,0.06341 -0.10376,0.115284 -0.23057,0.115284 -0.12682,0 -0.23057,0.05188 -0.23057,0.115285 0,0.06341 -0.10376,0.115285 -0.23057,0.115285 -0.12682,0 -0.23057,0.05188 -0.23057,0.115285 0,0.06341 -0.10376,0.115285 -0.23057,0.115285 -0.12681,0 -0.23057,0.05188 -0.23057,0.115284 0,0.06341 -0.10376,0.115285 -0.23057,0.115285 -0.12681,0 -0.23057,0.05188 -0.23057,0.115285 0,0.06341 -0.15563,0.115285 -0.34585,0.115285 -0.19022,0 -0.34586,0.05188 -0.34586,0.115284 0,0.06341 -0.10376,0.115285 -0.23057,0.115285 -0.12681,0 -0.23057,0.05188 -0.23057,0.115285 0,0.06341 -0.10375,0.115285 -0.23057,0.115285 -0.12681,0 -0.23057,0.05188 -0.23057,0.115285 0,0.06341 -0.10375,0.115284 -0.23057,0.115284 -0.12681,0 -0.23057,0.05188 -0.23057,0.115285 0,0.06341 -0.10375,0.115285 -0.23057,0.115285 -0.12681,0 -0.23057,0.05188 -0.23057,0.115285 0,0.06341 -0.10375,0.115285 -0.23057,0.115285 -0.12681,0 -0.23056,0.05188 -0.23056,0.115284 0,0.06341 -0.10376,0.115285 -0.23057,0.115285 -0.12682,0 -0.23057,0.05188 -0.23057,0.115285 0,0.06341 -0.10376,0.115285 -0.23057,0.115285 -0.12682,0 -0.23057,0.05188 -0.23057,0.115284 0,0.06341 -0.10376,0.115285 -0.23057,0.115285 -0.12682,0 -0.23057,0.05188 -0.23057,0.115285 0,0.06341 -0.10376,0.115285 -0.23057,0.115285 -0.12682,0 -0.23057,0.05188 -0.23057,0.115285 0,0.06341 -0.10376,0.115284 -0.23057,0.115284 -0.12681,0 -0.23057,0.05188 -0.23057,0.115285 0,0.06341 -0.10376,0.115285 -0.23057,0.115285 -0.12681,0 -0.23057,0.05188 -0.23057,0.115285 0,0.06341 -0.10376,0.115285 -0.23057,0.115285 -0.12681,0 -0.23057,0.05188 -0.23057,0.115284 0,0.06341 -0.15563,0.115285 -0.34585,0.115285 -0.19022,0 -0.34586,0.05188 -0.34586,0.115285 0,0.06341 -0.10375,0.115285 -0.23057,0.115285 -0.12681,0 -0.23057,0.05188 -0.23057,0.115285 0,0.06341 -0.10375,0.115284 -0.23057,0.115284 -0.12681,0 -0.23057,0.05188 -0.23057,0.115285 0,0.06341 -0.10375,0.115285 -0.23057,0.115285 -0.12681,0 -0.23057,0.05188 -0.23057,0.115285 0,0.06341 -0.10375,0.115284 -0.23056,0.115284 -0.12682,0 -0.23057,0.05188 -0.23057,0.115285 0,0.06341 -0.10376,0.115285 -0.23057,0.115285 -0.12682,0 -0.23057,0.05188 -0.23057,0.115285 0,0.06341 -0.10376,0.115285 -0.23057,0.115285 -0.12682,0 -0.23057,0.05188 -0.23057,0.115284 0,0.06341 -0.10376,0.115285 -0.23057,0.115285 -0.12682,0 -0.23057,0.05188 -0.23057,0.115285 0,0.06341 -0.10376,0.115285 -0.23057,0.115285 -0.12681,0 -0.23057,0.05188 -0.23057,0.115285 0,0.06341 -0.10376,0.115284 -0.23057,0.115284 -0.12681,0 -0.23057,0.05188 -0.23057,0.115285 0,0.06341 -0.10376,0.115285 -0.23057,0.115285 -0.12681,0 -0.23057,0.05188 -0.23057,0.115285 0,0.06341 -0.10376,0.115284 -0.23057,0.115284 -0.12681,0 -0.23057,0.05188 -0.23057,0.115285 0,0.06341 -0.10376,0.115285 -0.23057,0.115285 -0.12681,0 -0.23057,0.05188 -0.23057,0.115285 0,0.06341 -0.15563,0.115285 -0.34585,0.115285 -0.19022,0 -0.34586,0.05188 -0.34586,0.115284 0,0.06341 -0.10375,0.115285 -0.23057,0.115285 -0.12681,0 -0.23057,0.05188 -0.23057,0.115285 0,0.06341 -0.10375,0.115285 -0.23057,0.115285 -0.12681,0 -0.23056,0.05188 -0.23056,0.115285 0,0.06341 -0.10376,0.115284 -0.23057,0.115284 -0.12682,0 -0.23057,0.05188 -0.23057,0.115285 0,0.06341 -0.10376,0.115285 -0.23057,0.115285 -0.12682,0 -0.23057,0.05188 -0.23057,0.115285 0,0.06341 -0.10376,0.115285 -0.23057,0.115285 -0.12682,0 -0.23057,0.05188 -0.23057,0.115284 0,0.06341 -0.10376,0.115285 -0.23057,0.115285 -0.12682,0 -0.23057,0.05188 -0.23057,0.115285 0,0.06341 -0.10376,0.115285 -0.23057,0.115285 -0.12681,0 -0.23057,0.05188 -0.23057,0.115284 0,0.06341 -0.10376,0.115285 -0.23057,0.115285 -0.12681,0 -0.23057,0.05188 -0.23057,0.115285 0,0.06341 -0.10376,0.115285 -0.23057,0.115285 -0.12681,0 -0.23057,0.05188 -0.23057,0.115285 0,0.06341 -0.10376,0.115284 -0.23057,0.115284 -0.12681,0 -0.23057,0.05188 -0.23057,0.115285 0,0.06341 -0.10375,0.115285 -0.23057,0.115285 -0.12681,0 -0.23057,0.05188 -0.23057,0.115285 0,0.06341 -0.10375,0.115285 -0.23057,0.115285 -0.12681,0 -0.23057,0.05188 -0.23057,0.115284 0,0.06341 -0.10375,0.115285 -0.23057,0.115285 -0.12681,0 -0.23057,0.05188 -0.23057,0.115285 0,0.06341 -0.15563,0.115285 -0.34585,0.115285 -0.19022,0 -0.34585,0.05188 -0.34585,0.115284 0,0.06341 -0.10376,0.115285 -0.23057,0.115285 -0.12682,0 -0.23057,0.05188 -0.23057,0.115285 0,0.06341 -0.10376,0.115285 -0.23057,0.115285 -0.12682,0 -0.23057,0.05188 -0.23057,0.115285 0,0.06341 -0.10376,0.115284 -0.23057,0.115284 -0.12682,0 -0.23057,0.05188 -0.23057,0.115285 0,0.06341 -0.10376,0.115285 -0.23057,0.115285 -0.12681,0 -0.23057,0.05188 -0.23057,0.115285 0,0.06341 -0.10376,0.115285 -0.23057,0.115285 -0.12681,0 -0.23057,0.05188 -0.23057,0.115284 0,0.06341 -0.10376,0.115285 -0.23057,0.115285 -0.12681,0 -0.23057,0.05188 -0.23057,0.115285 0,0.06341 -0.10376,0.115285 -0.23057,0.115285 -0.12681,0 -0.23057,0.05188 -0.23057,0.115285 0,0.06341 -0.10376,0.115284 -0.23057,0.115284 -0.12681,0 -0.23057,0.05188 -0.23057,0.115285 0,0.06341 -0.10375,0.115285 -0.23057,0.115285 -0.12681,0 -0.23057,0.05188 -0.23057,0.115285 0,0.06341 -0.10375,0.115284 -0.23057,0.115284 -0.12681,0 -0.23057,0.05188 -0.23057,0.115285 0,0.06341 -0.10375,0.115285 -0.23057,0.115285 -0.12681,0 -0.23057,0.05188 -0.23057,0.115285 0,0.06341 -0.10375,0.115285 -0.23057,0.115285 -0.12681,0 -0.23056,0.05188 -0.23056,0.115284 0,0.06341 -0.15564,0.115285 -0.34586,0.115285 -0.19022,0 -0.34585,0.05188 -0.34585,0.115285 0,0.06341 -0.10376,0.115285 -0.23057,0.115285 -0.12682,0 -0.23057,0.05188 -0.23057,0.115285 0,0.06341 -0.10376,0.115284 -0.23057,0.115284 -0.12682,0 -0.23057,0.05188 -0.23057,0.115285 0,0.06341 -0.10376,0.115285 -0.23057,0.115285 -0.12681,0 -0.23057,0.05188 -0.23057,0.115285 0,0.06341 -0.10376,0.115284 -0.23057,0.115284 -0.12681,0 -0.23057,0.05188 -0.23057,0.115285 0,0.06341 -0.10376,0.115285 -0.23057,0.115285 -0.12681,0 -0.23057,0.05188 -0.23057,0.115285 0,0.06341 -0.10376,0.115285 -0.23057,0.115285 -0.12681,0 -0.23057,0.05188 -0.23057,0.115284 0,0.06341 -0.10375,0.115285 -0.23057,0.115285 -0.12681,0 -0.23057,0.05188 -0.23057,0.115285 0,0.06341 -0.10375,0.115285 -0.23057,0.115285 -0.12681,0 -0.23057,0.05188 -0.23057,0.115285 0,0.06341 -0.10375,0.115284 -0.23057,0.115284 -0.12681,0 -0.23057,0.05188 -0.23057,0.115285 0,0.06341 -0.10375,0.115285 -0.23057,0.115285 -0.12681,0 -0.23057,0.05188 -0.23057,0.115285 0,0.06341 -0.10375,0.115285 -0.23056,0.115285 -0.12682,0 -0.23057,0.05188 -0.23057,0.115284 0,0.06341 -0.10376,0.115285 -0.23057,0.115285 -0.12682,0 -0.23057,0.05188 -0.23057,0.115285 0,0.06341 -0.10376,0.115285 -0.23057,0.115285 -0.12682,0 -0.23057,0.05188 -0.23057,0.115284 0,0.06341 -0.15564,0.115285 -0.34586,0.115285 -0.19022,0 -0.34585,0.05188 -0.34585,0.115285 0,0.06341 -0.10376,0.115285 -0.23057,0.115285 -0.12681,0 -0.23057,0.05188 -0.23057,0.115285 0,0.06341 -0.10376,0.115284 -0.23057,0.115284 -0.12681,0 -0.23057,0.05188 -0.23057,0.115285 0,0.06341 -0.10376,0.115285 -0.23057,0.115285 -0.12681,0 -0.23057,0.05188 -0.23057,0.115285 0,0.06341 -0.10376,0.115285 -0.23057,0.115285 -0.12681,0 -0.23057,0.05188 -0.23057,0.115284 0,0.06341 -0.10375,0.115285 -0.23057,0.115285 -0.12681,0 -0.23057,0.05188 -0.23057,0.115285 0,0.06341 -0.10375,0.115285 -0.23057,0.115285 -0.12681,0 -0.23057,0.05188 -0.23057,0.115284 0,0.06341 -0.10375,0.115285 -0.23057,0.115285 -0.12681,0 -0.23057,0.05188 -0.23057,0.115285 0,0.06341 -0.10375,0.115285 -0.23057,0.115285 -0.12681,0 -0.23056,0.05188 -0.23056,0.115285 0,0.06341 -0.10376,0.115284 -0.23057,0.115284 -0.12682,0 -0.23057,0.05188 -0.23057,0.115285 0,0.06341 -0.10376,0.115285 -0.23057,0.115285 -0.12682,0 -0.23057,0.05188 -0.23057,0.115285 0,0.06341 -0.10376,0.115285 -0.23057,0.115285 -0.12682,0 -0.23057,0.05188 -0.23057,0.115284 0,0.06341 -0.10376,0.115285 -0.23057,0.115285 -0.12682,0 -0.23057,0.05188 -0.23057,0.115285 0,0.06341 -0.15564,0.115285 -0.34586,0.115285 -0.19022,0 -0.34585,0.05188 -0.34585,0.115285 0,0.06341 -0.10376,0.115284 -0.23057,0.115284 -0.12681,0 -0.23057,0.05188 -0.23057,0.115285 0,0.06341 -0.10376,0.115285 -0.23057,0.115285 -0.12681,0 -0.23057,0.05188 -0.23057,0.115285 0,0.06341 -0.10375,0.115284 -0.23057,0.115284 -0.12681,0 -0.23057,0.05188 -0.23057,0.115285 0,0.06341 -0.10375,0.115285 -0.23057,0.115285 -0.12681,0 -0.23057,0.05188 -0.23057,0.115285 0,0.06341 -0.10375,0.115285 -0.23057,0.115285 -0.12681,0 -0.23057,0.05188 -0.23057,0.115284 0,0.06341 -0.10375,0.115285 -0.23057,0.115285 -0.12681,0 -0.23057,0.05188 -0.23057,0.115285 0,0.06341 -0.10375,0.115285 -0.23056,0.115285 -0.12682,0 -0.23057,0.05188 -0.23057,0.115285 0,0.06341 -0.10376,0.115284 -0.23057,0.115284 -0.12682,0 -0.23057,0.05188 -0.23057,0.115285 0,0.06341 -0.10376,0.115285 -0.23057,0.115285 -0.12682,0 -0.23057,0.05188 -0.23057,0.115285 0,0.06341 -0.10376,0.115284 -0.23057,0.115284 -0.12682,0 -0.23057,0.05188 -0.23057,0.115285 0,0.06341 -0.10376,0.115285 -0.23057,0.115285 -0.12681,0 -0.23057,0.05188 -0.23057,0.115285 0,0.06341 -0.10376,0.115285 -0.23057,0.115285 -0.12681,0 -0.23057,0.05188 -0.23057,0.115284 0,0.06341 -0.10376,0.115285 -0.23057,0.115285 -0.12681,0 -0.23057,0.05188 -0.23057,0.115285 0,0.06341 -0.15563,0.115285 -0.34585,0.115285 -0.19022,0 -0.34586,0.05188 -0.34586,0.115285 0,0.06341 -0.10375,0.115284 -0.23057,0.115284 -0.12681,0 -0.23057,0.05188 -0.23057,0.115285 0,0.06341 -0.10375,0.115285 -0.23057,0.115285 -0.12681,0 -0.23057,0.05188 -0.23057,0.115285 0,0.06341 -0.10375,0.115285 -0.23057,0.115285 -0.12681,0 -0.23057,0.05188 -0.23057,0.115284 0,0.06341 -0.10375,0.115285 -0.23057,0.115285 -0.15371,0 -0.23056,0.07686 -0.23056,0.23057 0,0.126813 0.0701,0.230569 0.15582,0.230569 0.0857,0 0.31869,0.155635 0.51774,0.345855 0.19904,0.19022 0.40656,0.345854 0.46114,0.345854 0.0546,0 0.26209,0.155634 0.46113,0.345854 0.19905,0.19022 0.40656,0.345855 0.46114,0.345855 0.0546,0 0.2621,0.155634 0.46114,0.345854 0.19905,0.19022 0.40656,0.345854 0.46114,0.345854 0.0546,0 0.26209,0.155635 0.46114,0.345855 0.19905,0.19022 0.40656,0.345854 0.46114,0.345854 0.0546,0 0.26209,0.155635 0.46114,0.345855 0.19905,0.190219 0.40656,0.345854 0.46114,0.345854 0.0546,0 0.26209,0.155634 0.46114,0.345854 0.19904,0.19022 0.40656,0.345855 0.46114,0.345855 0.0546,0 0.26209,0.155634 0.46114,0.345854 0.19904,0.19022 0.40656,0.345854 0.46114,0.345854 0.0546,0 0.26209,0.155635 0.46113,0.345855 0.19905,0.19022 0.40656,0.345854 0.46114,0.345854 0.0546,0 0.2621,0.155635 0.46114,0.345854 0.19905,0.19022 0.40656,0.345855 0.46114,0.345855 0.0546,0 0.26209,0.155634 0.46114,0.345854 0.19905,0.19022 0.40656,0.345855 0.46114,0.345855 0.0546,0 0.26209,0.155634 0.46114,0.345854 0.19905,0.19022 0.40656,0.345854 0.46114,0.345854 0.0546,0 0.26209,0.155635 0.46114,0.345855 0.19904,0.19022 0.40656,0.345854 0.46114,0.345854 0.0546,0 0.26209,0.155634 0.46114,0.345854 0.19904,0.19022 0.40656,0.345855 0.46114,0.345855 0.0546,0 0.26209,0.155634 0.46113,0.345854 0.19905,0.19022 0.40656,0.345854 0.46114,0.345854 0.0546,0 0.2621,0.155635 0.46114,0.345855 0.19905,0.19022 0.40656,0.345854 0.46114,0.345854 0.0546,0 0.26209,0.155635 0.46114,0.345855 0.19905,0.190219 0.40656,0.345854 0.46114,0.345854 0.0546,0 0.26209,0.155634 0.46114,0.345854 0.19905,0.19022 0.40656,0.345855 0.46114,0.345855 0.0546,0 0.26209,0.155634 0.46114,0.345854 0.19904,0.19022 0.40656,0.345854 0.46114,0.345854 0.0546,0 0.26209,0.155635 0.46114,0.345855 0.19904,0.19022 0.40656,0.345854 0.46114,0.345854 0.0546,0 0.26209,0.155635 0.46113,0.345854 0.19905,0.19022 0.40656,0.345855 0.46114,0.345855 0.0546,0 0.2621,0.155634 0.46114,0.345854 0.19905,0.19022 0.40656,0.345855 0.46114,0.345855 0.0546,0 0.26209,0.155634 0.46114,0.345854 0.19905,0.19022 0.40656,0.345854 0.46114,0.345854 0.0546,0 0.26209,0.155635 0.46114,0.345855 0.19905,0.19022 0.40656,0.345854 0.46114,0.345854 0.0546,0 0.26209,0.155634 0.46114,0.345854 0.19905,0.19022 0.40656,0.345855 0.46114,0.345855 0.0546,0 0.26209,0.155634 0.46114,0.345854 0.19904,0.19022 0.40656,0.345854 0.46114,0.345854 0.0546,0 0.26209,0.155635 0.46113,0.345855 0.19905,0.19022 0.40656,0.345854 0.46114,0.345854 0.0546,0 0.2621,0.155635 0.46114,0.345855 0.19905,0.190219 0.40656,0.345854 0.46114,0.345854 0.0546,0 0.26209,0.155634 0.46114,0.345854 0.19905,0.19022 0.40656,0.345855 0.46114,0.345855 0.0546,0 0.26209,0.155634 0.46114,0.345854 0.19905,0.19022 0.40656,0.345854 0.46114,0.345854 0.0546,0 0.26209,0.155635 0.46114,0.345855 0.19905,0.19022 0.40656,0.345854 0.46114,0.345854 0.0546,0 0.26209,0.155635 0.46114,0.345854 0.19904,0.19022 0.40656,0.345855 0.46114,0.345855 0.0546,0 0.26209,0.155634 0.46113,0.345854 0.19905,0.19022 0.40656,0.345855 0.46114,0.345855 0.0546,0 0.2621,0.155634 0.46114,0.345854 0.19905,0.19022 0.40656,0.345854 0.46114,0.345854 0.0546,0 0.26209,0.155635 0.46114,0.345855 0.19905,0.19022 0.40656,0.345854 0.46114,0.345854 0.0546,0 0.26209,0.155634 0.46114,0.345854 0.19905,0.19022 0.40656,0.345855 0.46114,0.345855 0.0546,0 0.26209,0.155634 0.46114,0.345854 0.19905,0.19022 0.40656,0.345854 0.46114,0.345854 0.0546,0 0.26209,0.155635 0.46114,0.345855 0.19904,0.19022 0.40656,0.345854 0.46114,0.345854 0.0546,0 0.26209,0.155635 0.46113,0.345855 0.19905,0.190219 0.40656,0.345854 0.46114,0.345854 0.0546,0 0.2621,0.155634 0.46114,0.345854 0.19905,0.19022 0.40656,0.345855 0.46114,0.345855 0.0546,0 0.26209,0.155634 0.46114,0.345854 0.19905,0.19022 0.40656,0.345854 0.46114,0.345854 0.0546,0 0.26209,0.155635 0.46114,0.345855 0.19905,0.19022 0.40656,0.345854 0.46114,0.345854 0.0546,0 0.26209,0.155635 0.46114,0.345854 0.19905,0.19022 0.40656,0.345855 0.46114,0.345855 0.0546,0 0.26209,0.155634 0.46114,0.345854 0.19904,0.19022 0.40656,0.345855 0.46114,0.345855 0.0546,0 0.26209,0.155634 0.46113,0.345854 0.19905,0.19022 0.40656,0.345854 0.46114,0.345854 0.0546,0 0.2621,0.155635 0.46114,0.345855 0.19905,0.19022 0.40656,0.345854 0.46114,0.345854 0.0546,0 0.26209,0.155634 0.46114,0.345854 0.19905,0.19022 0.40656,0.345855 0.46114,0.345855 0.0546,0 0.26209,0.155634 0.46114,0.345854 0.19905,0.19022 0.40656,0.345854 0.46114,0.345854 0.0546,0 0.26209,0.155635 0.46114,0.345855 0.19905,0.19022 0.40656,0.345854 0.46114,0.345854 0.0546,0 0.25049,0.142665 0.43535,0.317033 0.18487,0.174369 0.47789,0.390648 0.65117,0.48062 0.17327,0.08997 0.31504,0.206699 0.31504,0.259391 0,0.141344 0.31224,0.116439 0.60558,-0.0483 z m -7.04338,-25.103262 c -0.19905,-0.19022 -0.42874,-0.345855 -0.51043,-0.345855 -0.0817,0 -0.22331,-0.103756 -0.31471,-0.230569 -0.0914,-0.126814 -0.24704,-0.23057 -0.34585,-0.23057 -0.0988,0 -0.25446,-0.103756 -0.34586,-0.23057 -0.0914,-0.126813 -0.24703,-0.230569 -0.34585,-0.230569 -0.0988,0 -0.25445,-0.103756 -0.34586,-0.23057 -0.0914,-0.126813 -0.24703,-0.230569 -0.34585,-0.230569 -0.0988,0 -0.25445,-0.103757 -0.34586,-0.23057 -0.0914,-0.126813 -0.24703,-0.230569 -0.34585,-0.230569 -0.0988,0 -0.25445,-0.103757 -0.34585,-0.23057 -0.0914,-0.126813 -0.25849,-0.23057 -0.37131,-0.23057 -0.11281,0 -0.20512,-0.05188 -0.20512,-0.115284 0,-0.06341 -0.0923,-0.115285 -0.20512,-0.115285 -0.11281,0 -0.2799,-0.103756 -0.3713,-0.23057 -0.0914,-0.126813 -0.24704,-0.230569 -0.34586,-0.230569 -0.0988,0 -0.25445,-0.103757 -0.34585,-0.23057 -0.0914,-0.126813 -0.24704,-0.230569 -0.34586,-0.230569 -0.0988,0 -0.25445,-0.103757 -0.34585,-0.23057 -0.0914,-0.126813 -0.24704,-0.23057 -0.34585,-0.23057 -0.0988,0 -0.25446,-0.103756 -0.34586,-0.230569 -0.0914,-0.126813 -0.24601,-0.23057 -0.34357,-0.23057 -0.0976,0 -0.24149,-0.102638 -0.31983,-0.228085 -0.11872,-0.190105 -0.10192,-0.30049 0.10091,-0.662888 0.13385,-0.239141 0.27696,-0.460741 0.31802,-0.492444 0.0411,-0.0317 0.19884,-0.304064 0.35062,-0.605245 0.15177,-0.301182 0.31968,-0.547603 0.37312,-0.547603 0.0534,0 0.0972,-0.103756 0.0972,-0.23057 0,-0.126813 0.0519,-0.230569 0.11528,-0.230569 0.0634,0 0.11529,-0.06803 0.11529,-0.151189 0,-0.08315 0.10375,-0.262558 0.23056,-0.398677 0.12682,-0.136118 0.23057,-0.327473 0.23057,-0.425235 0,-0.09776 0.0396,-0.177747 0.0881,-0.177747 0.0484,0 0.17504,-0.200703 0.28132,-0.446006 0.10627,-0.245303 0.26314,-0.517663 0.3486,-0.605245 0.0855,-0.08758 0.24548,-0.351363 0.35561,-0.58618 0.11013,-0.234817 0.26576,-0.494208 0.34585,-0.576424 0.0801,-0.08222 0.23688,-0.344026 0.34841,-0.581801 0.18913,-0.40321 0.23689,-0.432318 0.70935,-0.432318 0.27862,0 0.53863,-0.05188 0.57782,-0.115285 0.0392,-0.06341 0.40234,-0.115285 0.80699,-0.115285 0.40466,0 0.76781,-0.05188 0.807,-0.115285 0.0392,-0.06341 0.35045,-0.115284 0.69171,-0.115284 0.34125,0 0.65252,-0.05188 0.69171,-0.115285 0.0392,-0.06341 0.40233,-0.115285 0.80699,-0.115285 0.40466,0 0.76781,-0.05188 0.80699,-0.115285 0.0392,-0.06341 0.40234,-0.115285 0.807,-0.115285 0.40466,0 0.7678,-0.05188 0.80699,-0.115284 0.0392,-0.06341 0.35046,-0.115285 0.69171,-0.115285 0.34125,0 0.65252,-0.05188 0.69171,-0.115285 0.0392,-0.06341 0.40233,-0.115285 0.80699,-0.115285 0.40466,0 0.76781,-0.05188 0.80699,-0.115284 0.0821,-0.132888 1.28726,-0.158712 1.34499,-0.02882 0.0211,0.04756 0.28485,0.211346 0.58603,0.363979 0.30119,0.152634 0.54761,0.321238 0.54761,0.374676 0,0.05344 0.10375,0.09716 0.23057,0.09716 0.12681,0 0.23057,0.03964 0.23057,0.08809 0,0.04845 0.2007,0.17504 0.446,0.281313 0.24531,0.106273 0.51767,0.263145 0.60525,0.348603 0.0876,0.08546 0.35136,0.245483 0.58618,0.35561 0.23481,0.110128 0.49421,0.265762 0.57642,0.345855 0.0822,0.08009 0.34161,0.235727 0.57643,0.345854 0.23481,0.110127 0.4942,0.264091 0.57642,0.342142 0.0822,0.07805 0.3959,0.266495 0.69709,0.418764 0.30118,0.15227 0.5476,0.320577 0.5476,0.374015 0,0.05344 0.0994,0.09716 0.22096,0.09716 0.12153,0 0.23826,0.03891 0.25939,0.08646 0.0211,0.04756 0.28485,0.211346 0.58603,0.363979 0.45978,0.233009 0.54761,0.330076 0.54761,0.605245 0,0.180252 -0.0389,0.328135 -0.0865,0.328629 -0.10353,0.0011 -0.37467,0.559344 -0.37467,0.771436 0,0.08247 -0.0519,0.149943 -0.11529,0.149943 -0.0634,0 -0.11528,0.103757 -0.11528,0.23057 0,0.126813 -0.0519,0.230569 -0.11529,0.230569 -0.0634,0 -0.11528,0.103757 -0.11528,0.23057 0,0.126813 -0.0519,0.23057 -0.11529,0.23057 -0.0634,0 -0.11528,0.103756 -0.11528,0.230569 0,0.126813 -0.0519,0.23057 -0.11529,0.23057 -0.0634,0 -0.11528,0.103756 -0.11528,0.230569 0,0.126814 -0.0519,0.23057 -0.11529,0.23057 -0.0634,0 -0.11528,0.126634 -0.11528,0.281408 0,0.154775 -0.0519,0.313471 -0.11529,0.352658 -0.0634,0.03919 -0.11528,0.171945 -0.11528,0.295016 0,0.123071 -0.0519,0.223766 -0.11529,0.223766 -0.0634,0 -0.11528,0.103756 -0.11528,0.230569 0,0.126814 -0.0519,0.23057 -0.11529,0.23057 -0.0634,0 -0.11528,0.103756 -0.11528,0.23057 0,0.126813 -0.0519,0.230569 -0.11528,0.230569 -0.0634,0 -0.11529,0.103756 -0.11529,0.23057 0,0.126813 -0.0519,0.230569 -0.11528,0.230569 -0.0634,0 -0.11529,0.103757 -0.11529,0.23057 0,0.126813 -0.0519,0.230569 -0.11528,0.230569 -0.0634,0 -0.11529,0.09579 -0.11529,0.212858 0,0.117071 -0.0816,0.376462 -0.18137,0.576424 -0.16972,0.340218 -0.22111,0.363566 -0.80019,0.363566 -0.34035,0 -0.65088,0.05188 -0.69007,0.115285 -0.0392,0.06341 -0.35045,0.115285 -0.69171,0.115285 -0.34125,0 -0.65252,0.05188 -0.69171,0.115285 -0.0392,0.06341 -0.35045,0.115284 -0.6917,0.115284 -0.34126,0 -0.65253,0.05188 -0.69171,0.115285 -0.0392,0.06341 -0.35046,0.115285 -0.69171,0.115285 -0.34125,0 -0.65252,0.05188 -0.69171,0.115285 -0.0392,0.06341 -0.35046,0.115285 -0.69171,0.115285 -0.34125,0 -0.65252,0.05188 -0.69171,0.115284 -0.0392,0.06341 -0.35045,0.115285 -0.69171,0.115285 -0.34125,0 -0.65252,0.05188 -0.69171,0.115285 -0.0392,0.06341 -0.35045,0.115285 -0.6917,0.115285 -0.34126,0 -0.65253,0.05188 -0.69171,0.115285 -0.0392,0.06341 -0.40234,0.115284 -0.807,0.115284 -0.40466,0 -0.7678,0.05188 -0.80699,0.115285 -0.0392,0.06341 -0.26801,0.115285 -0.50849,0.115285 -0.32854,0 -0.5272,-0.08598 -0.79914,-0.345854 z m 1.71113,-0.234047 c 0.58839,-0.088 1.28759,-0.201087 2.88212,-0.466152 0.34873,-0.05797 0.99721,-0.157908 1.44106,-0.22208 0.44384,-0.06417 1.09232,-0.164108 1.44106,-0.22208 0.34873,-0.05797 0.99721,-0.165548 1.44106,-0.239059 0.44384,-0.07351 1.09232,-0.181439 1.44106,-0.239842 0.34873,-0.0584 0.89345,-0.138452 1.21049,-0.177888 0.5602,-0.06968 0.97992,-0.30248 0.97992,-0.54351 0,-0.06518 0.25939,-0.628232 0.57642,-1.251224 0.31703,-0.622992 0.57642,-1.25086 0.57642,-1.395262 0,-0.213717 -0.29483,-0.441938 -1.58516,-1.227034 -0.87184,-0.530466 -2.17569,-1.324157 -2.89744,-1.763757 -1.27023,-0.773668 -1.33117,-0.797237 -1.9022,-0.73573 -0.71513,0.07703 -1.95895,0.252872 -2.89562,0.409365 -0.38044,0.06356 -1.04189,0.169135 -1.46988,0.234608 -0.428,0.06547 -1.12835,0.17261 -1.55635,0.238083 -0.42799,0.06547 -1.08944,0.171046 -1.46988,0.234608 -0.38044,0.06356 -1.02891,0.161141 -1.44106,0.216843 -1.30588,0.176493 -1.37169,0.210581 -1.85733,0.961965 -0.2466,0.381535 -0.44836,0.735784 -0.44836,0.787221 0,0.05144 -0.20752,0.414584 -0.46114,0.806994 -0.25363,0.392409 -0.46114,0.827823 -0.46114,0.967586 0,0.203767 0.53992,0.612587 2.72518,2.063452 1.84109,1.222361 2.78544,1.784745 2.91094,1.73353 0.10217,-0.04169 0.47109,-0.118481 0.81983,-0.170637 z m 12.6525,-6.659168 c 0.33289,-0.68032 0.60525,-1.296888 0.60525,-1.370153 0,-0.07326 0.0644,-0.154669 0.14307,-0.1809 0.19913,-0.06638 -0.0823,-0.328231 -0.62766,-0.583998 -0.23481,-0.110127 -0.4942,-0.264091 -0.57642,-0.342142 -0.0822,-0.07805 -0.3959,-0.266495 -0.69709,-0.418764 -0.30118,-0.15227 -0.5476,-0.320577 -0.5476,-0.374015 0,-0.05344 -0.10375,-0.09716 -0.23057,-0.09716 -0.12681,0 -0.23057,-0.05188 -0.23057,-0.115284 0,-0.06341 -0.068,-0.115285 -0.15119,-0.115285 -0.0831,0 -0.26255,-0.103757 -0.39867,-0.23057 -0.13612,-0.126813 -0.32748,-0.230569 -0.42524,-0.230569 -0.0978,0 -0.17775,-0.03964 -0.17775,-0.08809 0,-0.04845 -0.2007,-0.17504 -0.446,-0.281313 -0.2453,-0.106274 -0.51766,-0.261474 -0.60525,-0.344891 -0.0876,-0.08342 -0.40566,-0.27625 -0.70684,-0.42852 -0.30118,-0.15227 -0.5476,-0.314526 -0.5476,-0.360569 0,-0.04604 -0.0908,-0.115737 -0.20175,-0.154876 -0.11096,-0.03914 -0.2666,-0.101391 -0.34585,-0.138338 -0.11201,-0.05221 -0.14411,0.334806 -0.14411,1.737581 0,1.847711 0.0651,2.134141 0.4851,2.134141 0.0856,0 0.23049,0.103756 0.32189,0.230569 0.0914,0.126814 0.25849,0.23057 0.37131,0.23057 0.11281,0 0.20512,0.05188 0.20512,0.115285 0,0.06341 0.068,0.115285 0.15119,0.115285 0.0831,0 0.26255,0.103756 0.39867,0.230569 0.13612,0.126813 0.32748,0.23057 0.42524,0.23057 0.0978,0 0.17775,0.05188 0.17775,0.115285 0,0.06341 0.068,0.115284 0.15118,0.115284 0.0832,0 0.26256,0.103757 0.39868,0.23057 0.13612,0.126813 0.31602,0.230569 0.39979,0.230569 0.0838,0 0.22708,0.103757 0.31848,0.23057 0.0914,0.126813 0.25849,0.23057 0.3713,0.23057 0.11282,0 0.20512,0.05188 0.20512,0.115284 0,0.06341 0.0923,0.115285 0.20512,0.115285 0.11282,0 0.2799,0.103756 0.37131,0.23057 0.0914,0.126813 0.25848,0.230569 0.3713,0.230569 0.11282,0 0.20512,0.05188 0.20512,0.115285 0,0.324559 0.23077,-0.01024 0.77817,-1.128974 z m -15.99576,-0.728162 c 0.34873,-0.05743 0.99721,-0.15448 1.44106,-0.215672 0.44384,-0.06119 1.1442,-0.166381 1.55634,-0.233753 0.41214,-0.06737 1.08656,-0.170739 1.4987,-0.229703 0.78218,-0.111904 1.61655,-0.246792 2.88212,-0.465932 0.41215,-0.07137 1.00875,-0.164329 1.32578,-0.206587 l 0.57642,-0.07683 -0.0306,-1.786915 c -0.0168,-0.982802 -0.0583,-1.909852 -0.0921,-2.060111 -0.0673,-0.298719 -0.20759,-0.300536 -1.95243,-0.02529 -1.4003,0.220898 -2.43957,0.378686 -3.17034,0.481337 -0.41214,0.05789 -1.06062,0.156848 -1.44106,0.219898 -0.38043,0.06305 -1.05485,0.166727 -1.4987,0.230392 -2.87625,0.412569 -2.64102,0.291123 -2.54834,1.315665 0.0407,0.449914 0.10284,1.310868 0.13809,1.913231 0.0805,1.375963 0.0981,1.430968 0.42299,1.327128 0.1419,-0.04535 0.54332,-0.129434 0.89206,-0.186861 z m 26.74607,-6.904507 c 0,-0.06341 -0.068,-0.115285 -0.15119,-0.115285 -0.0831,0 -0.26256,-0.103756 -0.39868,-0.230569 -0.13611,-0.126813 -0.32747,-0.23057 -0.42523,-0.23057 -0.0978,0 -0.17775,-0.05188 -0.17775,-0.115285 0,-0.06341 -0.10376,-0.115284 -0.23057,-0.115284 -0.12681,0 -0.23057,-0.05188 -0.23057,-0.115285 0,-0.06341 -0.10375,-0.115285 -0.23057,-0.115285 -0.12681,0 -0.23057,-0.05188 -0.23057,-0.115285 0,-0.06341 -0.10375,-0.115284 -0.23057,-0.115284 -0.12681,0 -0.23057,-0.05188 -0.23057,-0.115285 0,-0.06341 -0.068,-0.115285 -0.15119,-0.115285 -0.0831,0 -0.26255,-0.103756 -0.39867,-0.23057 -0.13612,-0.126813 -0.32748,-0.230569 -0.42524,-0.230569 -0.0978,0 -0.17774,-0.05188 -0.17774,-0.115285 0,-0.06341 -0.10376,-0.115285 -0.23057,-0.115285 -0.12682,0 -0.23057,-0.05188 -0.23057,-0.115285 0,-0.06341 -0.10376,-0.115284 -0.23057,-0.115284 -0.12682,0 -0.23057,-0.05188 -0.23057,-0.115285 0,-0.06341 -0.068,-0.115285 -0.15119,-0.115285 -0.0832,0 -0.26256,-0.103756 -0.39868,-0.230569 -0.13612,-0.126814 -0.32747,-0.23057 -0.42523,-0.23057 -0.0978,0 -0.17775,-0.05188 -0.17775,-0.115285 0,-0.06341 -0.10376,-0.115285 -0.23057,-0.115285 -0.12681,0 -0.23057,-0.05188 -0.23057,-0.115284 0,-0.06341 -0.10376,-0.115285 -0.23057,-0.115285 -0.12681,0 -0.23057,-0.05188 -0.23057,-0.115285 0,-0.06341 -0.10376,-0.115285 -0.23057,-0.115285 -0.12681,0 -0.23057,-0.04583 -0.23057,-0.101839 0,-0.05601 -0.10375,-0.128972 -0.23057,-0.162134 -0.17661,-0.04619 -0.23057,-0.15725 -0.23057,-0.474585 0,-0.227859 0.0519,-0.41429 0.11529,-0.41429 0.0634,0 0.11528,-0.09312 0.11528,-0.206931 0,-0.113813 0.51878,-1.23983 1.15285,-2.502261 0.63407,-1.262431 1.15285,-2.36251 1.15285,-2.444619 0,-0.09694 0.15931,-0.149289 0.45433,-0.149289 0.24989,0 0.4864,-0.05188 0.52559,-0.115285 0.0392,-0.06341 0.40233,-0.115284 0.80699,-0.115284 0.40466,0 0.76781,-0.05188 0.807,-0.115285 0.0392,-0.06341 0.40233,-0.115285 0.80699,-0.115285 0.40466,0 0.76781,-0.05188 0.80699,-0.115285 0.0392,-0.06341 0.40234,-0.115285 0.807,-0.115285 0.40466,0 0.7678,-0.05188 0.80699,-0.115284 0.0392,-0.06341 0.40233,-0.115285 0.80699,-0.115285 0.40466,0 0.76781,-0.05188 0.807,-0.115285 0.0392,-0.06341 0.40233,-0.115285 0.80699,-0.115285 0.40466,0 0.76781,-0.05188 0.80699,-0.115285 0.0818,-0.132417 1.55589,-0.159698 1.55725,-0.02882 0.001,0.103533 0.55934,0.374676 0.77143,0.374676 0.0825,0 0.14995,0.05188 0.14995,0.115285 0,0.06341 0.10375,0.115284 0.23057,0.115284 0.12681,0 0.23057,0.05188 0.23057,0.115285 0,0.06341 0.10375,0.115285 0.23057,0.115285 0.12681,0 0.23057,0.05188 0.23057,0.115285 0,0.06341 0.10375,0.115285 0.23057,0.115285 0.12681,0 0.23057,0.05188 0.23057,0.115284 0,0.06341 0.10375,0.115285 0.23056,0.115285 0.12682,0 0.23057,0.05188 0.23057,0.115285 0,0.06341 0.10376,0.115285 0.23057,0.115285 0.12682,0 0.23057,0.05188 0.23057,0.115284 0,0.06341 0.10376,0.115285 0.23057,0.115285 0.12682,0 0.23057,0.05188 0.23057,0.115285 0,0.06341 0.10376,0.115285 0.23057,0.115285 0.12682,0 0.23057,0.05188 0.23057,0.115285 0,0.06341 0.10376,0.115284 0.23057,0.115284 0.12681,0 0.23057,0.05188 0.23057,0.115285 0,0.06341 0.10376,0.115285 0.23057,0.115285 0.12681,0 0.23057,0.05188 0.23057,0.115285 0,0.06341 0.10376,0.115285 0.23057,0.115285 0.12681,0 0.23057,0.05188 0.23057,0.115284 0,0.06341 0.10376,0.115285 0.23057,0.115285 0.12681,0 0.23057,0.05188 0.23057,0.115285 0,0.06341 0.10375,0.115285 0.23057,0.115285 0.12681,0 0.23057,0.05188 0.23057,0.115284 0,0.06341 0.10375,0.115285 0.23057,0.115285 0.12681,0 0.23057,0.05188 0.23057,0.115285 0,0.06341 0.10375,0.115285 0.23057,0.115285 0.12681,0 0.23057,0.05188 0.23057,0.115285 0,0.06341 0.0747,0.115284 0.16612,0.115284 0.23204,0 0.34655,0.225147 0.19274,0.378957 -0.0706,0.07056 -0.12829,0.221677 -0.12829,0.335809 0,0.114132 -0.0519,0.207513 -0.11529,0.207513 -0.0634,0 -0.11528,0.155634 -0.11528,0.345854 0,0.19022 -0.0519,0.345854 -0.11529,0.345854 -0.0634,0 -0.11528,0.126634 -0.11528,0.281409 0,0.154774 -0.0519,0.31347 -0.11529,0.352658 -0.0634,0.03919 -0.11528,0.194822 -0.11528,0.345854 0,0.151033 -0.0519,0.306667 -0.11529,0.345855 -0.0634,0.03919 -0.11528,0.171944 -0.11528,0.295015 0,0.123071 -0.0519,0.223766 -0.11529,0.223766 -0.0634,0 -0.11528,0.155635 -0.11528,0.345854 0,0.19022 -0.0519,0.345855 -0.11529,0.345855 -0.0634,0 -0.11528,0.155634 -0.11528,0.345854 0,0.19022 -0.0519,0.345855 -0.11529,0.345855 -0.0634,0 -0.11528,0.155634 -0.11528,0.345854 0,0.19022 -0.0519,0.345854 -0.11529,0.345854 -0.0634,0 -0.11528,0.136946 -0.11528,0.304324 0,0.443423 -0.30315,0.610106 -1.11722,0.614288 -0.39255,0.002 -0.74579,0.05554 -0.78498,0.118951 -0.0392,0.06341 -0.35046,0.115285 -0.69171,0.115285 -0.34125,0 -0.65252,0.05188 -0.69171,0.115285 -0.0392,0.06341 -0.40233,0.115285 -0.80699,0.115285 -0.40466,0 -0.76781,0.05188 -0.80699,0.115284 -0.0392,0.06341 -0.35046,0.115285 -0.69171,0.115285 -0.34126,0 -0.65252,0.05188 -0.69171,0.115285 -0.0392,0.06341 -0.40234,0.115285 -0.807,0.115285 -0.40465,0 -0.7678,0.05188 -0.80699,0.115285 -0.0392,0.06341 -0.40233,0.115284 -0.80699,0.115284 -0.40466,0 -0.76781,0.05188 -0.807,0.115285 -0.0392,0.06341 -0.45727,0.115285 -0.92908,0.115285 -0.49503,0 -0.85783,-0.04876 -0.85783,-0.115286 z m 2.36334,-0.46107 c 0.44384,-0.06339 1.11826,-0.166844 1.4987,-0.229895 0.38044,-0.06305 1.05486,-0.167141 1.4987,-0.231313 0.44385,-0.06417 1.11826,-0.167928 1.4987,-0.23057 0.38044,-0.06264 1.05486,-0.165983 1.49871,-0.229648 1.76287,-0.252866 2.19795,-0.32592 2.37771,-0.399242 0.16446,-0.06708 0.40786,-0.530994 0.66807,-1.273309 0.0445,-0.126813 0.0627,-0.312204 0.0405,-0.41198 -0.0224,-0.101064 -0.74037,-0.525637 -1.62094,-0.958627 -1.86641,-0.917739 -3.44275,-1.738694 -4.20362,-2.189237 -0.59076,-0.34981 -0.54719,-0.348495 -2.47836,-0.0748 -0.4597,0.06515 -1.21193,0.171298 -1.67163,0.235883 -1.15084,0.161685 -2.20628,0.31589 -3.02623,0.442146 -0.38044,0.05858 -1.10673,0.162721 -1.61398,0.231423 -1.17345,0.158929 -1.57477,0.27417 -1.68231,0.483072 -0.20869,0.4054 -0.56103,1.260909 -0.62613,1.520271 -0.0636,0.253343 2.6e-4,0.320347 0.59986,0.629587 0.36906,0.190339 0.90447,0.484646 1.1898,0.654016 0.28533,0.16937 0.8753,0.487296 1.31106,0.706502 0.43575,0.219206 0.8642,0.458246 0.9521,0.5312 0.0879,0.07295 0.53549,0.335049 0.99464,0.582433 0.90904,0.489786 0.87068,0.486874 2.79465,0.212086 z m 9.16514,-3.855306 c 0,-0.154774 0.0519,-0.31347 0.11528,-0.352658 0.0634,-0.03919 0.11529,-0.170366 0.11529,-0.291509 0,-0.121142 0.10375,-0.404989 0.23057,-0.630769 0.12681,-0.22578 0.23057,-0.509627 0.23057,-0.630769 0,-0.121143 0.0459,-0.248625 0.10199,-0.283294 0.0561,-0.03467 0.12465,-0.217402 0.15234,-0.406072 l 0.0503,-0.343036 -3.58207,-1.790791 -3.58206,-1.79079 -0.0319,1.751653 c -0.0317,1.735914 -0.0294,1.754039 0.25435,2.017131 0.15747,0.146013 0.36639,0.265478 0.46427,0.265478 0.0979,0 0.17796,0.05188 0.17796,0.115285 0,0.06341 0.10375,0.115284 0.23057,0.115284 0.12681,0 0.23057,0.05188 0.23057,0.115285 0,0.06341 0.10375,0.115285 0.23057,0.115285 0.12681,0 0.23057,0.05188 0.23057,0.115285 0,0.06341 0.10375,0.115284 0.23057,0.115284 0.12681,0 0.23057,0.05188 0.23057,0.115285 0,0.06341 0.10375,0.115285 0.23057,0.115285 0.12681,0 0.23056,0.05188 0.23056,0.115285 0,0.06341 0.10376,0.115285 0.23057,0.115285 0.12682,0 0.23057,0.05188 0.23057,0.115284 0,0.06341 0.10376,0.115285 0.23057,0.115285 0.12682,0 0.23057,0.05188 0.23057,0.115285 0,0.06341 0.10376,0.115285 0.23057,0.115285 0.12682,0 0.23057,0.05188 0.23057,0.115285 0,0.06341 0.0994,0.115284 0.22096,0.115284 0.12153,0 0.23826,0.03891 0.2594,0.08646 0.039,0.08773 1.3496,0.804355 1.5083,0.82472 0.0476,0.0061 0.0865,-0.115539 0.0865,-0.270314 z m -14.8141,-1.708193 c 0.44385,-0.04939 1.1442,-0.139758 1.55635,-0.200809 0.41214,-0.06105 1.1125,-0.16109 1.55634,-0.222308 0.44385,-0.06122 1.11826,-0.16224 1.4987,-0.224492 0.38044,-0.06225 1.05486,-0.169393 1.49871,-0.23809 1.9622,-0.303701 1.82702,-0.254474 1.91821,-0.698528 0.0456,-0.221923 0.11992,-1.09876 0.1652,-1.948527 l 0.0823,-1.54503 -0.67937,0.07214 c -0.37365,0.03968 -1.01658,0.121867 -1.42872,0.182644 -0.41214,0.06078 -1.16438,0.169393 -1.67163,0.241369 -0.50725,0.07197 -1.23355,0.175731 -1.61399,0.230569 -1.69551,0.244397 -2.58364,0.368774 -3.21545,0.450306 -0.97045,0.12523 -0.99244,0.175568 -0.99244,2.271314 0,1.74488 0.0572,1.998352 0.40349,1.788953 0.0634,-0.03834 0.47844,-0.110117 0.92228,-0.159511 z m 5.13018,36.800367 c 0,-0.172928 0.53762,-0.686468 0.71866,-0.686468 0.084,0 0.2275,-0.103756 0.3189,-0.23057 0.18973,-0.263236 0.46114,-0.306931 0.46114,-0.07424 0,0.159949 -1.18846,1.111802 -1.38817,1.111802 -0.0608,0 -0.11053,-0.05424 -0.11053,-0.120525 z m 1.61398,-1.152847 c 0,-0.172929 0.53763,-0.686469 0.71866,-0.686469 0.084,0 0.2275,-0.103756 0.31891,-0.23057 0.18973,-0.263236 0.46114,-0.306931 0.46114,-0.07424 0,0.159949 -1.18846,1.111803 -1.38817,1.111803 -0.0608,0 -0.11054,-0.05424 -0.11054,-0.120525 z m 1.61399,-1.152848 c 0,-0.172929 0.53762,-0.686469 0.71866,-0.686469 0.084,0 0.2275,-0.103756 0.3189,-0.230569 0.0914,-0.126814 0.23768,-0.23057 0.32505,-0.23057 0.0874,0 0.30425,-0.155634 0.48195,-0.345854 0.17769,-0.19022 0.39456,-0.345855 0.48194,-0.345855 0.0874,0 0.23365,-0.103756 0.32505,-0.230569 0.0914,-0.126814 0.23768,-0.23057 0.32505,-0.23057 0.0874,0 0.30425,-0.155634 0.48194,-0.345854 0.1777,-0.19022 0.39457,-0.345855 0.48195,-0.345855 0.0874,0 0.23365,-0.103756 0.32505,-0.230569 0.0914,-0.126813 0.23767,-0.23057 0.32505,-0.23057 0.0874,0 0.30425,-0.155634 0.48194,-0.345854 0.17769,-0.19022 0.39457,-0.345855 0.48194,-0.345855 0.0874,0 0.23365,-0.103756 0.32505,-0.230569 0.0914,-0.126813 0.23768,-0.23057 0.32506,-0.23057 0.0874,0 0.30425,-0.155634 0.48194,-0.345854 0.17769,-0.19022 0.39456,-0.345854 0.48194,-0.345854 0.0874,0 0.23365,-0.103757 0.32505,-0.23057 0.0914,-0.126813 0.23768,-0.23057 0.32505,-0.23057 0.0874,0 0.30425,-0.155634 0.48195,-0.345854 0.17769,-0.19022 0.39456,-0.345854 0.48194,-0.345854 0.0874,0 0.23365,-0.103757 0.32505,-0.23057 0.0914,-0.126813 0.23767,-0.230569 0.32505,-0.230569 0.0874,0 0.30425,-0.155635 0.48194,-0.345855 0.17769,-0.19022 0.39457,-0.345854 0.48194,-0.345854 0.0874,0 0.23365,-0.103756 0.32506,-0.23057 0.0914,-0.126813 0.23767,-0.230569 0.32505,-0.230569 0.0874,0 0.30425,-0.155635 0.48194,-0.345855 0.17769,-0.19022 0.39457,-0.345854 0.48194,-0.345854 0.0874,0 0.23365,-0.103756 0.32505,-0.23057 0.0914,-0.126813 0.23768,-0.230569 0.32505,-0.230569 0.0874,0 0.30425,-0.155635 0.48195,-0.345855 0.17769,-0.190219 0.39456,-0.345854 0.48194,-0.345854 0.0874,0 0.23365,-0.103756 0.32505,-0.230569 0.0914,-0.126814 0.23767,-0.23057 0.32505,-0.23057 0.0874,0 0.30425,-0.155635 0.48194,-0.345854 0.1777,-0.19022 0.39457,-0.345855 0.48195,-0.345855 0.0874,0 0.23365,-0.103756 0.32505,-0.230569 0.0914,-0.126814 0.23767,-0.23057 0.32505,-0.23057 0.0874,0 0.30425,-0.155634 0.48194,-0.345854 0.17769,-0.19022 0.39457,-0.345855 0.48194,-0.345855 0.0874,0 0.23365,-0.103756 0.32505,-0.230569 0.0914,-0.126814 0.23768,-0.23057 0.32506,-0.23057 0.0874,0 0.30425,-0.155634 0.48194,-0.345854 0.17769,-0.19022 0.39456,-0.345855 0.48194,-0.345855 0.0874,0 0.23365,-0.103756 0.32505,-0.230569 0.0914,-0.126813 0.23768,-0.23057 0.32505,-0.23057 0.0874,0 0.30425,-0.155634 0.48194,-0.345854 0.1777,-0.19022 0.39457,-0.345854 0.48195,-0.345854 0.0874,0 0.23365,-0.103757 0.32505,-0.23057 0.0914,-0.126813 0.23767,-0.23057 0.32505,-0.23057 0.0874,0 0.30425,-0.155634 0.48194,-0.345854 0.17769,-0.19022 0.39457,-0.345854 0.48194,-0.345854 0.0874,0 0.23365,-0.103757 0.32506,-0.23057 0.0914,-0.126813 0.24703,-0.230569 0.34585,-0.230569 0.0988,0 0.25445,-0.103757 0.34585,-0.23057 0.19179,-0.266089 0.46114,-0.306075 0.46114,-0.06846 0,0.136823 -0.71518,0.732208 -1.39575,1.161961 -0.64736,0.408782 -1.10704,0.744743 -1.24278,0.9083 -0.0861,0.103734 -0.20754,0.188607 -0.26988,0.188607 -0.0623,0 -0.26026,0.116726 -0.43983,0.259391 -0.63697,0.506088 -0.91766,0.707157 -1.90934,1.367738 -0.24882,0.165744 -0.52284,0.386226 -0.60893,0.48996 -0.0861,0.103734 -0.20753,0.188607 -0.26988,0.188607 -0.0623,0 -0.26026,0.116726 -0.43982,0.25939 -0.63697,0.506088 -0.91766,0.707158 -1.90934,1.367738 -0.24882,0.165745 -0.52284,0.386227 -0.60893,0.489961 -0.0861,0.103733 -0.20754,0.188606 -0.26988,0.188606 -0.0623,0 -0.26026,0.116726 -0.43982,0.259391 -0.63698,0.506088 -0.91767,0.707158 -1.90935,1.367738 -0.24882,0.165745 -0.52284,0.386227 -0.60893,0.489961 -0.0861,0.103733 -0.20753,0.188606 -0.26987,0.188606 -0.0623,0 -0.26027,0.116726 -0.43983,0.259391 -0.63697,0.506088 -0.91766,0.707157 -1.90934,1.367738 -0.24882,0.165745 -0.52284,0.386227 -0.60893,0.48996 -0.0861,0.103734 -0.21996,0.188607 -0.29747,0.188607 -0.0775,0 -0.23485,0.103756 -0.34961,0.23057 -0.11476,0.126813 -0.26873,0.230569 -0.34215,0.230569 -0.0734,0 -0.2826,0.155635 -0.46484,0.345854 -0.18225,0.19022 -0.39142,0.345855 -0.46484,0.345855 -0.0734,0 -0.22739,0.103756 -0.34216,0.230569 -0.11476,0.126814 -0.26873,0.23057 -0.34215,0.23057 -0.0734,0 -0.2826,0.155634 -0.46484,0.345854 -0.18224,0.19022 -0.39142,0.345855 -0.46484,0.345855 -0.0734,0 -0.22739,0.103756 -0.34215,0.230569 -0.11477,0.126814 -0.26874,0.23057 -0.34216,0.23057 -0.0734,0 -0.2826,0.155634 -0.46484,0.345854 -0.18224,0.19022 -0.39142,0.345855 -0.46484,0.345855 -0.0734,0 -0.22739,0.103756 -0.34215,0.230569 -0.11477,0.126813 -0.25399,0.23057 -0.30939,0.23057 -0.0554,0 -0.43495,0.259391 -0.84346,0.576424 -0.73913,0.573625 -0.97992,0.685648 -0.97992,0.455899 z m 23.28753,-16.60101 c 0,-0.172928 0.53762,-0.686468 0.71866,-0.686468 0.084,0 0.2275,-0.103757 0.3189,-0.23057 0.18973,-0.263236 0.46114,-0.306931 0.46114,-0.07424 0,0.159949 -1.18846,1.111802 -1.38817,1.111802 -0.0608,0 -0.11053,-0.05424 -0.11053,-0.120525 z m 1.61399,-1.152848 c 0,-0.172928 0.53762,-0.686468 0.71866,-0.686468 0.084,0 0.2275,-0.103757 0.3189,-0.23057 0.18973,-0.263236 0.46114,-0.306931 0.46114,-0.07424 0,0.159949 -1.18846,1.111802 -1.38817,1.111802 -0.0608,0 -0.11053,-0.05424 -0.11053,-0.120525 z"
       id="path2" /></g></svg>
