<?xml version="1.0" encoding="UTF-8" standalone="no"?>
<!-- Created with Inkscape (http://www.inkscape.org/) -->

<svg
   width="120mm"
   height="100mm"
   viewBox="0 0 120 100"
   version="1.1"
   id="svg1"
   xml:space="preserve"
   xmlns:inkscape="http://www.inkscape.org/namespaces/inkscape"
   xmlns:sodipodi="http://sodipodi.sourceforge.net/DTD/sodipodi-0.dtd"
   xmlns="http://www.w3.org/2000/svg"
   xmlns:svg="http://www.w3.org/2000/svg"><sodipodi:namedview
     id="namedview1"
     pagecolor="#ffffff"
     bordercolor="#000000"
     borderopacity="0.25"
     inkscape:showpageshadow="2"
     inkscape:pageopacity="0.0"
     inkscape:pagecheckerboard="0"
     inkscape:deskcolor="#d1d1d1"
     inkscape:document-units="mm"><inkscape:page
       x="0"
       y="0"
       width="120"
       height="100"
       id="page3"
       margin="0"
       bleed="0"
       inkscape:export-filename="Example2_polygons.svg"
       inkscape:export-xdpi="96"
       inkscape:export-ydpi="96" /></sodipodi:namedview><defs
     id="defs1" /><g
     inkscape:label="Calque 1"
     inkscape:groupmode="layer"
     id="layer1"
     transform="translate(-260)"><path
       style="fill:#0969da;fill-opacity:1"
       d="m 317.51207,88.411418 c -0.0394,-0.0638 -0.17507,-0.11599 -0.30144,-0.11599 -0.39922,0 -1.16742,-0.468 -1.75006,-1.06618 -0.82709,-0.84914 -0.94841,-1.14338 -0.87319,-2.11784 0.0347,-0.44967 0.0261,-2.03518 -0.0192,-3.52337 l -0.0823,-2.70579 -0.45872,-0.3895 c -0.2523,-0.21423 -0.58921,-0.45733 -0.74869,-0.54022 -0.42045,-0.21852 -0.91142,-0.55778 -1.52453,-1.05344 -0.29625,-0.2395 -0.66161,-0.50137 -0.81192,-0.58195 -0.4784,-0.25646 -0.95384,-0.58332 -1.50785,-1.03662 -0.29625,-0.24239 -0.66161,-0.50664 -0.81192,-0.58722 -0.47839,-0.25645 -0.95384,-0.58331 -1.50785,-1.03662 -0.29624,-0.24239 -0.66161,-0.50664 -0.81192,-0.58722 -0.47839,-0.25645 -0.95383,-0.58331 -1.50785,-1.03661 -0.29624,-0.2424 -0.66161,-0.50708 -0.81192,-0.58819 -0.46467,-0.25074 -1.17504,-0.74315 -1.78114,-1.23463 -0.31896,-0.25865 -0.6375,-0.47082 -0.70784,-0.4715 -0.21853,-0.002 -1.32195,-1.27104 -1.32195,-1.52023 0,-0.12985 -0.0489,-0.3274 -0.10861,-0.43901 -0.0626,-0.11688 -0.0682,-0.38204 -0.0133,-0.62531 0.0617,-0.27374 -0.0598,-2.414 -0.34544,-6.08182 -0.24239,-3.11268 -0.47325,-6.12918 -0.51303,-6.70332 -0.0398,-0.57415 -0.0957,-1.22658 -0.1243,-1.44986 -0.0286,-0.22328 -0.0791,-0.82352 -0.11222,-1.33386 -0.11301,-1.74063 -0.19409,-2.55133 -0.36389,-3.6386 -0.0934,-0.59776 -0.1447,-1.111891 -0.11409,-1.142499 0.11805,-0.118052 0.30306,0.110112 0.30306,0.373752 0,0.379407 0.40251,1.029587 0.75377,1.217577 0.15957,0.0854 0.29012,0.19865 0.29012,0.25166 0,0.053 0.0558,0.0964 0.12409,0.0964 0.0682,0 0.35168,0.15659 0.62984,0.34797 0.27816,0.19138 0.53785,0.34796 0.57708,0.34796 0.0392,0 0.45808,0.26098 0.93077,0.57994 0.47269,0.31897 0.89075,0.57995 0.92903,0.57995 0.0383,0 0.37704,0.20877 0.7528,0.46395 0.37576,0.25517 0.71503,0.46395 0.75392,0.46395 0.0389,0 0.37817,0.20878 0.75393,0.46396 0.37576,0.25517 0.71452,0.46395 0.7528,0.46395 0.0383,0 0.45634,0.26097 0.92903,0.57994 0.47269,0.31897 0.89075,0.57994 0.92903,0.57994 0.0383,0 0.37704,0.20878 0.7528,0.46396 0.37576,0.25517 0.71503,0.46395 0.75392,0.46395 0.0389,0 0.37817,0.20878 0.75393,0.46395 0.37576,0.25518 0.71452,0.46396 0.7528,0.46396 0.0383,0 0.45634,0.26097 0.92903,0.57994 0.47269,0.31897 0.89154,0.57994 0.93077,0.57994 0.0392,0 0.28977,0.15029 0.55676,0.33399 0.44989,0.30953 0.73549,0.4805 1.73115,1.03634 1.12812,0.62979 3.97621,0.85955 5.53844,0.44681 0.75895,-0.20052 2.37729,-0.93276 2.49988,-1.13112 0.0363,-0.0587 0.29448,-0.2108 0.57382,-0.33805 0.27933,-0.12726 0.5403,-0.28384 0.57994,-0.34797 0.0396,-0.0641 0.29524,-0.21827 0.56801,-0.34253 0.27277,-0.12426 0.56306,-0.3068 0.6451,-0.40565 0.082,-0.0988 0.196,-0.17973 0.25325,-0.17973 0.0573,0 0.32488,-0.14181 0.59474,-0.31514 0.26985,-0.17333 0.67332,-0.41326 0.8966,-0.53317 0.68605,-0.36843 0.7486,-0.47754 0.38039,-0.66355 -0.17732,-0.0896 -0.53117,-0.29655 -0.78635,-0.45994 -0.25517,-0.16338 -0.62054,-0.37188 -0.81192,-0.46332 -0.19138,-0.0914 -0.47845,-0.25337 -0.63793,-0.35983 -0.15949,-0.10647 -0.48087,-0.30048 -0.71419,-0.43113 l -0.42422,-0.23754 -0.96764,0.26592 c -1.66679,0.45805 -2.75063,0.56201 -5.20122,0.49886 -2.22401,-0.0573 -2.97531,-0.16045 -4.52355,-0.62098 -1.08414,-0.32248 -2.20261,-0.84085 -2.84171,-1.31703 -0.25518,-0.19012 -0.57037,-0.39351 -0.70043,-0.45196 -0.52252,-0.23486 -1.79332,-1.96896 -1.79332,-2.44711 0,-0.12188 -0.0522,-0.25386 -0.11599,-0.29329 -0.15124,-0.0935 -0.15124,-1.762345 0,-1.855815 0.0638,-0.03943 0.11599,-0.14976 0.11599,-0.245186 0,-0.239203 0.90122,-1.558898 1.25832,-1.842604 0.16059,-0.127588 0.48449,-0.40161 0.71977,-0.608939 0.23528,-0.20733 0.45799,-0.376963 0.4949,-0.376963 0.0369,0 0.29157,-0.149633 0.56589,-0.332519 0.27432,-0.182885 0.70754,-0.398466 0.96272,-0.479069 0.25517,-0.0806 0.51614,-0.186497 0.57994,-0.23532 0.0638,-0.04882 0.4965,-0.201442 0.96158,-0.339153 l 0.84559,-0.250384 -0.0156,-1.739533 c -0.009,-0.956743 -0.0555,-1.723779 -0.10418,-1.704524 -0.0487,0.01926 -3.30918,1.64931 -7.2455,3.622346 -7.1729,3.595335 -8.05017,4.100235 -8.30954,4.782439 -0.0567,0.149246 -0.15666,0.271357 -0.22203,0.271357 -0.27509,0 -0.077,-0.358756 0.55151,-0.998991 0.62878,-0.640483 0.97234,-0.833799 5.53844,-3.116425 2.67745,-1.338471 4.88548,-2.473708 4.90674,-2.522747 0.0213,-0.04904 0.13871,-0.08916 0.26098,-0.08916 0.12227,0 0.22231,-0.0522 0.22231,-0.115989 0,-0.06379 0.10439,-0.115988 0.23198,-0.115988 0.12758,0 0.23197,-0.0522 0.23197,-0.115988 0,-0.06379 0.10439,-0.115989 0.23198,-0.115989 0.12759,0 0.23198,-0.0522 0.23198,-0.115988 0,-0.06379 0.10439,-0.115989 0.23197,-0.115989 0.12759,0 0.23198,-0.05219 0.23198,-0.115988 0,-0.06379 0.10439,-0.115988 0.23198,-0.115988 0.12758,0 0.23197,-0.05219 0.23197,-0.115989 0,-0.06379 0.10439,-0.115988 0.23198,-0.115988 0.12759,0 0.23198,-0.05219 0.23198,-0.115988 0,-0.06379 0.10439,-0.115989 0.23197,-0.115989 0.12759,0 0.23198,-0.0522 0.23198,-0.115988 0,-0.06379 0.10439,-0.115988 0.23198,-0.115988 0.12758,0 0.23197,-0.05219 0.23197,-0.115989 0,-0.06379 0.10439,-0.115988 0.23198,-0.115988 0.12759,0 0.23198,-0.05331 0.23198,-0.118475 0,-0.06516 0.14353,-0.181537 0.31897,-0.258613 0.17543,-0.07708 0.35478,-0.191096 0.39857,-0.253377 0.0438,-0.06228 0.0549,-0.820167 0.0247,-1.684192 -0.0302,-0.864024 -0.15723,-5.877021 -0.28233,-11.139993 -0.4233,-17.8091201 -0.45977,-19.1950804 -0.52233,-19.8513744 -0.0547,-0.573568 -0.0281,-0.695291 0.21334,-0.97594 0.17148,-0.199362 0.30519,-0.273083 0.35351,-0.194904 0.0427,0.06916 -0.0533,0.228769 -0.21337,0.354697 -0.16009,0.125928 -0.29107,0.300274 -0.29107,0.387435 0,0.212987 0.51281,0.754007 0.90262,0.952263 1.26666,0.644229 4.36139,0.816264 5.91706,0.328928 0.95634,-0.299589 1.46975,-0.579373 1.72076,-0.937745 0.0945,-0.134935 0.20803,-0.245337 0.25225,-0.24534 0.0442,-2e-6 0.0672,7.3464114 0.051,16.3253634 l -0.0294,16.325366 0.50659,0.319648 c 0.27863,0.175807 1.64638,0.8949 3.03945,1.597986 1.39307,0.703085 2.61369,1.347004 2.71249,1.430932 0.0988,0.08393 1.06695,0.584551 2.15144,1.112498 1.08449,0.527947 1.9979,0.99286 2.0298,1.03314 0.0589,0.07438 0.6249,0.373066 3.0157,1.591425 1.26404,0.64416 1.94141,1.09155 1.65267,1.09155 -0.18158,0 -2.12848,-1.018672 -2.37735,-1.243894 -0.11178,-0.101156 -0.20323,-0.141643 -0.20323,-0.08997 0,0.05167 -0.10439,-5.23e-4 -0.23198,-0.115988 -0.12758,-0.115465 -0.23197,-0.180644 -0.23197,-0.144842 0,0.125738 -4.33887,-2.136025 -4.66854,-2.43361 -0.11164,-0.100775 -0.20298,-0.140952 -0.20298,-0.08928 0,0.05167 -0.10439,-5.23e-4 -0.23197,-0.115988 -0.12759,-0.115465 -0.23198,-0.16766 -0.23198,-0.115988 0,0.05167 -0.10439,-5.24e-4 -0.23198,-0.115989 -0.12758,-0.115465 -0.23197,-0.180643 -0.23197,-0.144842 0,0.125739 -4.33887,-2.136024 -4.66854,-2.433609 -0.11163,-0.100776 -0.20298,-0.140952 -0.20298,-0.08928 0,0.05167 -0.10438,-5.24e-4 -0.23197,-0.115988 -0.12759,-0.115465 -0.23198,-0.165311 -0.23198,-0.110768 0,0.05454 -0.0626,0.03654 -0.13919,-0.04002 -0.0765,-0.07655 -0.23313,-0.139186 -0.34796,-0.139186 -0.19235,0 -0.20878,0.146059 -0.20878,1.855814 v 1.855813 h 0.34112 c 0.18762,0 0.37338,0.0522 0.41281,0.115989 0.0394,0.06379 0.19601,0.115988 0.34796,0.115988 0.15195,0 0.30854,0.0522 0.34797,0.115988 0.0394,0.06379 0.16578,0.115989 0.28079,0.115989 0.22837,0 1.75075,0.754804 2.3562,1.168219 0.71068,0.485268 1.95934,1.788504 2.18722,2.282823 0.64388,1.396686 0.4787,2.706535 -0.50355,3.993265 l -0.32597,0.42701 0.4964,0.33143 c 0.27302,0.18229 0.75738,0.45757 1.07635,0.61173 0.31897,0.15417 0.72797,0.38071 0.90889,0.50344 0.18092,0.12272 0.57009,0.34522 0.86483,0.49444 0.4743,0.24012 0.55751,0.25172 0.72408,0.10098 0.10351,-0.0937 0.22871,-0.17031 0.27823,-0.17031 0.0495,0 0.32205,-0.15659 0.60562,-0.34797 0.28357,-0.19138 0.54455,-0.34796 0.57994,-0.34796 0.0354,0 0.29637,-0.15659 0.57995,-0.34797 0.28357,-0.19138 0.54454,-0.34796 0.57994,-0.34796 0.0354,0 0.29637,-0.15659 0.57994,-0.34797 0.28357,-0.19138 0.54455,-0.34796 0.57994,-0.34796 0.0354,0 0.2807,-0.14354 0.54513,-0.31897 0.26443,-0.17544 0.633,-0.39726 0.81904,-0.49295 0.57332,-0.29488 0.93275,-0.74694 1.15534,-1.453055 0.16334,-0.518188 0.23778,-0.633344 0.31742,-0.491044 0.0626,0.111828 0.0586,0.305301 -0.01,0.485582 -0.0627,0.164827 -0.14286,0.703957 -0.1782,1.198067 -0.0988,1.38123 -0.43536,7.24815 -0.43082,7.50972 0.002,0.12759 -0.0467,1.09319 -0.10882,2.14578 -0.17848,3.02666 -0.19526,3.50785 -0.12842,3.68204 0.0345,0.09 0.35131,0.30022 0.70396,0.46719 0.35265,0.16697 0.59343,0.31523 0.53508,0.32945 -0.0584,0.0142 -0.29967,0.0582 -0.53626,0.0977 -1.5296,0.25549 -3.02064,4.00675 -1.59258,4.00675 0.31679,0 1.50079,-0.93197 1.50079,-1.18134 0,-0.0638 0.10439,-0.24865 0.23198,-0.41085 0.12758,-0.1622 0.23197,-0.41528 0.23197,-0.56239 0,-0.14712 0.0522,-0.29975 0.11599,-0.33917 0.0638,-0.0394 0.11599,-0.36003 0.11599,-0.71244 0,-0.4621 0.0404,-0.62674 0.14498,-0.59049 0.0962,0.0333 0.14033,0.28068 0.13115,0.73459 -0.0181,0.8965 -0.45753,1.76388 -1.29488,2.55615 -0.60824,0.5755 -0.62717,0.61189 -0.55149,1.05983 0.1269,0.75115 -0.0908,1.2888 -0.79724,1.96885 -0.34791,0.33492 -0.71142,0.60894 -0.8078,0.60894 -0.0964,0 -0.24569,0.10059 -0.3318,0.22353 -0.0861,0.12295 -0.29785,0.28791 -0.47053,0.36659 -0.17268,0.0787 -0.31396,0.18053 -0.31396,0.22635 0,0.0458 -0.15659,0.14816 -0.34797,0.22743 -0.19138,0.0793 -0.34796,0.19111 -0.34796,0.24853 0,0.0574 -0.14282,0.16853 -0.31738,0.24691 -0.17456,0.0784 -0.40943,0.23384 -0.52195,0.34547 -0.11251,0.11164 -0.28286,0.20298 -0.37855,0.20298 -0.0957,0 -0.17398,0.0533 -0.17398,0.11848 0,0.0652 -0.14282,0.1826 -0.31738,0.26097 -0.17456,0.0784 -0.40943,0.23384 -0.52195,0.34548 -0.11251,0.11164 -0.28286,0.20298 -0.37855,0.20298 -0.0957,0 -0.17398,0.0549 -0.17398,0.12191 0,0.067 -0.17379,0.19452 -0.3862,0.28327 -0.21241,0.0888 -0.45367,0.24267 -0.53615,0.34204 -0.0825,0.0994 -0.21889,0.18069 -0.30316,0.18069 -0.0843,0 -0.22365,0.10059 -0.30977,0.22353 -0.0861,0.12294 -0.29785,0.2879 -0.47053,0.36658 -0.17268,0.0787 -0.31396,0.18335 -0.31396,0.23261 0,0.0493 -0.0986,0.12084 -0.21904,0.15907 -0.12048,0.0382 -0.35805,0.19834 -0.52793,0.35579 -0.16988,0.15744 -0.38448,0.28625 -0.47688,0.28625 -0.0924,0 -0.16801,0.0533 -0.16801,0.11848 0,0.0652 -0.14282,0.1826 -0.31738,0.26097 -0.17456,0.0784 -0.40943,0.23384 -0.52195,0.34548 -0.11251,0.11164 -0.28286,0.20298 -0.37855,0.20298 -0.0957,0 -0.17398,0.0549 -0.17398,0.12191 0,0.067 -0.17379,0.19452 -0.3862,0.28327 -0.2124,0.0887 -0.45367,0.24267 -0.53615,0.34204 -0.0825,0.0994 -0.21376,0.18069 -0.29175,0.18069 -0.078,0 -0.23628,0.10439 -0.35174,0.23197 -0.11547,0.12759 -0.26709,0.23254 -0.33695,0.23322 -0.0699,6.8e-4 -0.30201,0.18135 -0.5159,0.4015 l -0.3889,0.40027 -0.0301,3.71945 c -0.0165,2.0457 -0.0634,3.75273 -0.10405,3.79341 -0.0407,0.0407 -0.074,0.18355 -0.074,0.31749 0,0.5681 -1.85177,2.03757 -2.56767,2.03757 -0.1113,0 -0.23462,0.0522 -0.27404,0.11599 -0.042,0.068 -0.71419,0.11599 -1.62384,0.11599 -0.90965,0 -1.58183,-0.048 -1.62384,-0.11599 z m 3.59564,-0.3474 c 1.28005,-0.46688 1.21788,-0.2297 1.21788,-4.64657 0,-2.12582 -0.0453,-3.82114 -0.10218,-3.82114 -0.0562,0 -0.46071,0.13708 -0.89891,0.30462 -1.10145,0.42113 -3.34698,0.49307 -4.74034,0.15188 -0.51034,-0.12496 -1.02246,-0.28125 -1.13803,-0.3473 -0.201,-0.11488 -0.20715,-0.008 -0.1416,2.46609 0.11627,4.38796 0.14627,4.67804 0.52236,5.0502 0.39918,0.39501 0.56178,0.51482 0.93126,0.68615 0.51753,0.24 0.74511,0.30346 1.27587,0.3558 0.28707,0.0283 0.54804,0.0789 0.57994,0.11251 0.13148,0.13839 1.84727,-0.0764 2.49375,-0.31224 z m 1.76862,-6.87287 c -0.0192,-1.03665 -0.035,-0.18849 -0.035,1.88481 0,2.07329 0.0157,2.92145 0.035,1.88481 0.0192,-1.03665 0.0192,-2.73298 0,-3.76962 z m -2.47574,-1.36328 c 0.0636,-0.0636 0.20798,-0.11558 0.32092,-0.11558 0.39646,0 1.49624,-0.58594 1.58906,-0.84662 0.05,-0.14039 0.0608,-4.83118 0.024,-10.42396 l -0.0669,-10.1687 -0.52194,0.24362 c -0.6851,0.31978 -1.38455,0.43519 -3.0737,0.50714 -1.06318,0.0453 -1.56989,0.0144 -2.14578,-0.13067 -1.07035,-0.2697 -1.42133,-0.36817 -1.65283,-0.46371 -0.14196,-0.0586 -0.20298,-0.0298 -0.20298,0.0957 0,0.0987 0.0944,4.05805 0.20975,8.79853 0.11536,4.74047 0.21323,9.03659 0.2175,9.54694 0.004,0.51035 0.0469,1.22951 0.0949,1.59814 l 0.0871,0.67023 0.62674,0.28667 c 0.3447,0.15767 0.69304,0.28668 0.77408,0.28668 0.081,0 0.19693,0.0491 0.25754,0.10903 0.24313,0.24057 3.22301,0.2462 3.46266,0.007 z m -5.68627,-2.29036 c -0.0276,-0.62199 -0.12671,-4.18428 -0.2203,-7.9162 -0.0936,-3.73193 -0.20408,-7.85762 -0.24554,-9.16819 l -0.0754,-2.38288 -0.56194,-0.37185 c -0.30907,-0.20452 -0.59151,-0.37185 -0.62765,-0.37185 -0.0361,0 -0.37315,-0.20878 -0.74891,-0.46395 -0.37576,-0.25518 -0.71452,-0.46396 -0.7528,-0.46396 -0.0383,0 -0.45634,-0.26097 -0.92903,-0.57994 -0.47269,-0.31897 -0.89076,-0.57994 -0.92903,-0.57994 -0.0383,0 -0.37704,-0.20878 -0.7528,-0.46395 -0.37576,-0.25518 -0.71503,-0.46396 -0.75393,-0.46396 -0.0389,0 -0.37816,-0.20878 -0.75392,-0.46395 -0.37576,-0.25518 -0.71452,-0.46395 -0.7528,-0.46395 -0.0383,0 -0.45634,-0.26098 -0.92903,-0.57995 -0.47269,-0.31896 -0.89076,-0.57994 -0.92904,-0.57994 -0.0383,0 -0.37703,-0.20878 -0.7528,-0.46395 -0.37576,-0.25518 -0.71502,-0.46395 -0.75392,-0.46395 -0.0389,0 -0.37816,-0.20878 -0.75392,-0.46396 -0.37577,-0.25517 -0.71503,-0.46395 -0.75393,-0.46395 -0.0389,0 -0.36798,-0.19969 -0.73129,-0.44376 -0.36331,-0.24406 -0.73372,-0.4869 -0.82312,-0.53964 -0.17445,-0.10292 -0.16054,0.39123 0.10766,3.82511 0.0648,0.82932 0.16757,2.21248 0.22844,3.07369 0.0609,0.86122 0.16546,2.27048 0.23241,3.13169 0.067,0.86121 0.17334,2.29657 0.23641,3.18968 0.19607,2.77626 0.33569,4.71518 0.41507,5.76382 0.0752,0.99349 0.0828,1.01349 0.51754,1.36286 0.24267,0.19501 0.48838,0.35457 0.54603,0.35457 0.0576,0 0.19928,0.10439 0.31475,0.23198 0.11546,0.12758 0.25553,0.23197 0.31127,0.23197 0.0557,0 0.43761,0.26098 0.84861,0.57995 0.411,0.31896 0.79288,0.57994 0.84861,0.57994 0.0557,0 0.19581,0.10439 0.31127,0.23197 0.11547,0.12759 0.25554,0.23198 0.31128,0.23198 0.0557,0 0.43761,0.26097 0.84861,0.57994 0.411,0.31897 0.79287,0.57994 0.84861,0.57994 0.0557,0 0.19581,0.10439 0.31127,0.23198 0.11547,0.12759 0.25554,0.23198 0.31127,0.23198 0.0557,0 0.43762,0.26097 0.84862,0.57994 0.411,0.31897 0.79287,0.57994 0.84861,0.57994 0.0557,0 0.1958,0.10439 0.31127,0.23198 0.11546,0.12759 0.25554,0.23197 0.31127,0.23197 0.0557,0 0.43761,0.26098 0.84861,0.57995 0.411,0.31896 0.79288,0.57994 0.84861,0.57994 0.0557,0 0.19581,0.10439 0.31128,0.23198 0.11546,0.12758 0.25553,0.23197 0.31127,0.23197 0.0557,0 0.43761,0.26098 0.84861,0.57994 0.411,0.31897 0.79288,0.57995 0.84861,0.57995 0.0557,0 0.19581,0.10438 0.31127,0.23197 0.11547,0.12759 0.24912,0.23198 0.29701,0.23198 0.0479,0 0.0645,-0.5089 0.0369,-1.13089 z m 8.73165,0.66694 c 0.0657,0 0.21401,-0.10439 0.32947,-0.23198 0.11547,-0.12759 0.27205,-0.23198 0.34797,-0.23198 0.0759,0 0.2325,-0.10439 0.34796,-0.23197 0.11547,-0.12759 0.27205,-0.23198 0.34797,-0.23198 0.0759,0 0.2325,-0.10439 0.34796,-0.23198 0.11547,-0.12759 0.27205,-0.23197 0.34797,-0.23197 0.0759,0 0.2325,-0.10439 0.34796,-0.23198 0.11547,-0.12759 0.27205,-0.23198 0.34797,-0.23198 0.0759,0 0.2325,-0.10439 0.34796,-0.23198 0.11547,-0.12758 0.25554,-0.23197 0.31128,-0.23197 0.0557,0 0.43761,-0.26098 0.84861,-0.57994 0.411,-0.31897 0.79287,-0.57995 0.84861,-0.57995 0.0557,0 0.19581,-0.10438 0.31127,-0.23197 0.11547,-0.12759 0.27205,-0.23198 0.34797,-0.23198 0.0759,0 0.2325,-0.10439 0.34796,-0.23198 0.11547,-0.12758 0.27205,-0.23197 0.34797,-0.23197 0.0759,0 0.2325,-0.10439 0.34796,-0.23198 0.11547,-0.12759 0.27205,-0.23198 0.34797,-0.23198 0.0759,0 0.2325,-0.10439 0.34796,-0.23197 0.11547,-0.12759 0.27205,-0.23198 0.34797,-0.23198 0.0759,0 0.2325,-0.10439 0.34796,-0.23198 0.11547,-0.12758 0.27205,-0.23197 0.34797,-0.23197 0.0759,0 0.2325,-0.10439 0.34796,-0.23198 0.11547,-0.12759 0.25554,-0.23198 0.31128,-0.23198 0.0557,0 0.43761,-0.26097 0.84861,-0.57994 0.411,-0.31897 0.79287,-0.57994 0.84861,-0.57994 0.0557,0 0.19581,-0.10439 0.31127,-0.23198 0.11547,-0.12758 0.27205,-0.23197 0.34797,-0.23197 0.0759,0 0.2325,-0.10439 0.34796,-0.23198 0.11547,-0.12759 0.26709,-0.23363 0.33695,-0.23564 0.0699,-0.002 0.27054,-0.13 0.44597,-0.28441 0.31273,-0.27525 0.31897,-0.30648 0.31897,-1.59685 v -1.31612 l -0.46712,-0.28429 c -0.25692,-0.15636 -0.72428,-0.44087 -1.03858,-0.63225 -0.3143,-0.19138 -0.83721,-0.50455 -1.16203,-0.69593 -0.32482,-0.19138 -0.86045,-0.5176 -1.19029,-0.72493 -0.67769,-0.42598 -0.78151,-0.4521 -0.78151,-0.19662 0,0.26554 -0.83434,1.44795 -1.35119,1.91489 -0.62479,0.56447 -1.11681,0.7506 -1.63774,0.61958 -0.34332,-0.0863 -0.46809,-0.20624 -0.69994,-0.67258 l -0.28214,-0.56751 0.12979,-3.02813 c 0.15509,-3.61822 0.16946,-7.49369 0.0278,-7.49369 -0.056,0 -0.16676,0.0783 -0.24618,0.17399 -0.0794,0.0957 -0.19567,0.17398 -0.25835,0.17398 -0.0627,0 -0.34598,0.15658 -0.62955,0.34796 -0.28357,0.19139 -0.54455,0.34797 -0.57994,0.34797 -0.0354,0 -0.29637,0.15658 -0.57994,0.34796 -0.28358,0.19139 -0.54801,0.34797 -0.58763,0.34797 -0.0396,0 -0.15445,0.0726 -0.25516,0.16132 -0.10072,0.0887 -0.3658,0.26123 -0.58908,0.38333 -0.22328,0.12209 -0.65388,0.37534 -0.9569,0.56275 l -0.55095,0.34077 v 10.31503 10.31503 l 0.26845,-0.2522 c 0.14765,-0.13871 0.32224,-0.25219 0.38798,-0.25219 z m 13.71798,-10.17798 c 0.004,-0.20733 -0.044,-0.37697 -0.10784,-0.37697 -0.0638,0 -0.11232,0.27403 -0.10783,0.60894 0.006,0.44722 0.0346,0.54733 0.10783,0.37697 0.0548,-0.12759 0.10336,-0.40161 0.10784,-0.60894 z m -36.4122,-1.79202 c 0,-0.52311 -0.041,-0.90152 -0.091,-0.84092 -0.0903,0.10935 -0.0504,1.79202 0.0426,1.79202 0.0267,0 0.0485,-0.428 0.0485,-0.9511 z m 29.48978,-0.46538 c 0.53368,-0.37304 1.24714,-1.5852 1.24714,-2.11887 0,-0.0754 -0.14353,-0.20926 -0.31897,-0.29748 -0.17543,-0.0882 -0.44945,-0.24752 -0.60894,-0.35399 -0.15948,-0.10647 -0.47265,-0.29743 -0.69593,-0.42436 -0.22327,-0.12693 -0.57017,-0.32661 -0.77087,-0.44374 -0.30732,-0.17935 -0.39427,-0.18859 -0.55094,-0.0586 -0.15137,0.12562 -0.18604,0.40789 -0.18604,1.51474 0,1.5759 0.0973,1.93932 0.61153,2.2835 0.41974,0.28096 0.76558,0.25346 1.27302,-0.10123 z m 6.01959,-0.41034 c 0.0704,-0.17543 0.16832,-0.42335 0.21767,-0.55094 0.30063,-0.77731 0.53794,-1.1819 1.06402,-1.81405 0.45714,-0.54931 0.5541,-0.73105 0.42894,-0.80397 -9.68239,-5.64113 -9.3197,-5.44378 -9.39806,-5.11378 -0.1105,0.46533 -0.11127,3.88194 -9.1e-4,4.05595 0.0964,0.15205 7.30252,4.5321 7.47092,4.54102 0.0492,0.003 0.14705,-0.13879 0.21742,-0.31423 z m -35.74135,-2.12363 c 0,-0.51411 -0.0391,-0.91072 -0.087,-0.88134 -0.0884,0.0543 -0.0514,1.81609 0.0382,1.81609 0.0269,0 0.0488,-0.42064 0.0488,-0.93475 z m 37.04117,-3.67578 c 0.0469,-0.91104 0.0319,-1.42086 -0.0419,-1.42086 -0.07,0 -0.11501,0.57539 -0.11501,1.46918 0,0.80806 0.0188,1.44744 0.0419,1.42086 0.023,-0.0266 0.0748,-0.68771 0.11501,-1.46918 z m -37.27314,0.42811 c 0,-0.51412 -0.0392,-0.91072 -0.087,-0.88135 -0.0884,0.0543 -0.0514,1.8161 0.0382,1.8161 0.0268,0 0.0488,-0.42064 0.0488,-0.93475 z m 36.58391,0.32581 c 0.0319,-0.20733 0.0889,-1.23818 0.12648,-2.29077 0.0945,-2.64313 0.25824,-6.08832 0.35703,-7.51025 0.0829,-1.19398 0.0218,-1.40154 -0.29911,-1.01489 -0.0794,0.0957 -0.19567,0.17398 -0.25835,0.17398 -0.0627,0 -0.34598,0.15658 -0.62955,0.34796 -0.28357,0.19138 -0.54455,0.34797 -0.57994,0.34797 -0.0354,0 -0.29637,0.15658 -0.57994,0.34796 -0.28358,0.19138 -0.54455,0.34797 -0.57995,0.34797 -0.0354,0 -0.2807,0.14353 -0.54513,0.31897 -0.26442,0.17543 -0.6752,0.42148 -0.91284,0.54677 -0.23764,0.12529 -0.45656,0.29161 -0.48649,0.3696 -0.0299,0.078 -0.0909,1.43693 -0.1356,3.01987 l -0.0812,2.87807 0.39369,0.20922 c 0.21652,0.11507 0.78514,0.43768 1.2636,0.71693 0.47845,0.27924 1.10479,0.64319 1.39186,0.80877 0.28707,0.16559 0.67853,0.40025 0.86991,0.52147 0.49495,0.31351 0.6196,0.28813 0.68551,-0.1396 z m -36.81589,-3.47385 c 0,-0.5869 -0.0403,-1.01751 -0.0895,-0.95691 -0.0899,0.11065 -0.0517,2.024 0.0404,2.024 0.027,0 0.0492,-0.48019 0.0492,-1.06709 z m 31.70952,-0.23778 c 0.0369,-0.65388 0.0849,-1.90304 0.10686,-2.77591 l 0.0399,-1.58704 -0.53066,-0.26362 c -0.29187,-0.145 -0.68141,-0.36597 -0.86564,-0.49106 -0.38486,-0.2613 -1.84288,-1.00735 -1.88546,-0.96477 -0.0156,0.0156 0.15208,0.50903 0.37271,1.09642 0.4817,1.28243 0.97781,3.49569 0.97781,4.36222 0,0.74717 0.16622,0.99297 0.98643,1.45872 0.31868,0.18096 0.61354,0.33462 0.65524,0.34147 0.0417,0.007 0.10599,-0.52254 0.14285,-1.17643 z m 6.0224,-1.44985 c 0.0412,-1.00821 0.0248,-1.65284 -0.0421,-1.65284 -0.0639,0 -0.10962,0.71026 -0.10962,1.70117 0,0.93564 0.0189,1.67941 0.0421,1.65283 0.0231,-0.0266 0.0725,-0.7921 0.10962,-1.70116 z m -8.85691,0.34796 c 0.22935,-0.82586 0.10244,-2.51464 -0.23958,-3.1881 -0.0563,-0.11078 -0.10229,-0.30343 -0.10229,-0.42811 0,-0.12469 -0.0482,-0.25649 -0.10706,-0.29288 -0.0589,-0.0364 -0.14419,-0.23518 -0.18956,-0.44176 -0.0454,-0.20658 -0.18991,-0.59668 -0.3212,-0.86691 l -0.2387,-0.49132 0.24687,-0.43923 0.24686,-0.43923 -0.37267,-0.69751 c -0.75851,-1.419666 -1.91468,-2.691662 -3.30125,-3.631983 -0.93424,-0.633571 -1.53073,-0.895504 -1.53073,-0.67218 0,0.288476 -0.38257,0.943597 -0.71541,1.22508 -0.18067,0.152787 -0.32849,0.35573 -0.32849,0.450982 0,0.09525 0.21205,0.4139 0.47121,0.708105 0.25917,0.294205 0.50939,0.587113 0.55605,0.650907 0.0466,0.06379 0.35656,0.466809 0.68867,0.895589 0.33211,0.42877 0.60384,0.82519 0.60384,0.88093 0,0.0557 0.10439,0.19581 0.23198,0.31127 0.12759,0.11547 0.23197,0.28513 0.23197,0.37704 0,0.0919 0.0948,0.30564 0.2107,0.47497 0.30067,0.43935 1.26945,2.45258 1.35983,2.82586 0.0926,0.3827 0.11451,0.40028 1.27119,1.0219 0.51035,0.27428 0.96404,0.55381 1.0082,0.62119 0.0442,0.0674 0.0497,0.45052 0.0122,0.85143 -0.0775,0.83021 0.1089,1.00852 0.30735,0.29396 z m -29.10699,-1.79202 c 0,-0.5231 -0.041,-0.90152 -0.091,-0.84091 -0.0903,0.10934 -0.0504,1.79202 0.0426,1.79202 0.0267,0 0.0485,-0.428 0.0485,-0.95111 z m 20.76192,-1.06871 c 1.24503,-0.14856 2.25194,-0.35328 3.26644,-0.66414 0.36637,-0.11226 0.46995,-0.0987 0.75392,0.0988 0.18107,0.12592 0.49884,0.30208 0.70617,0.39147 0.20733,0.0894 0.37696,0.20197 0.37696,0.25019 0,0.0482 0.0587,0.0877 0.13049,0.0877 0.21983,0 0.0167,-0.67723 -0.53899,-1.7969 -0.28567,-0.57563 -0.51941,-1.10585 -0.51941,-1.17828 0,-0.0724 -0.0791,-0.16203 -0.17572,-0.19911 -0.0966,-0.0371 -0.22153,-0.18792 -0.27752,-0.33518 -0.056,-0.14727 -0.29008,-0.51442 -0.52021,-0.8159 -0.23012,-0.30148 -0.41841,-0.58051 -0.41841,-0.62007 0,-0.0396 -0.16963,-0.26621 -0.37696,-0.50367 -0.20733,-0.237453 -0.58202,-0.674386 -0.83266,-0.970961 -0.33108,-0.391775 -0.53989,-0.539227 -0.76359,-0.539227 -0.16934,0 -0.34522,0.03733 -0.39084,0.08295 -0.3177,0.317702 -3.55063,0.547693 -3.72534,0.26502 -0.0394,-0.06379 -0.21478,-0.115989 -0.38968,-0.115989 -0.34687,0 -0.94183,-0.237763 -0.94328,-0.376962 -4.9e-4,-0.04785 -0.10335,-0.08699 -0.22857,-0.08699 -0.35288,0 -1.14427,-0.897363 -1.24841,-1.415571 l -0.0898,-0.446712 -0.605,0.312079 c -1.57113,0.810445 -3.28229,2.503006 -4.12824,4.083373 -0.44043,0.8228 -0.44113,0.82627 -0.24755,1.2342 0.10677,0.225 0.44723,0.621 0.75658,0.88 0.60992,0.51066 2.67898,1.616 3.02493,1.616 0.11736,0 0.21338,0.0522 0.21338,0.11599 0,0.0638 0.1796,0.11599 0.39912,0.11599 0.21951,0 0.43137,0.0522 0.4708,0.11599 0.0394,0.0638 0.2482,0.11599 0.46395,0.11599 0.21575,0 0.42453,0.0522 0.46395,0.11598 0.0394,0.0638 0.42092,0.1212 0.84776,0.12755 0.42685,0.006 0.90657,0.0533 1.06605,0.10443 0.45867,0.14689 2.02758,0.12524 3.47965,-0.048 z m 17.43093,-2.06877 c 0.0375,-0.9352 0.0199,-1.59484 -0.0424,-1.59484 -0.0594,0 -0.10628,0.72518 -0.10628,1.64317 0,0.90374 0.0191,1.62142 0.0424,1.59484 0.0233,-0.0266 0.0711,-0.76601 0.10627,-1.64317 z m -38.42482,0.006 c 0,-0.5869 -0.0403,-1.01751 -0.0896,-0.95691 -0.0899,0.11065 -0.0517,2.024 0.0404,2.024 0.027,0 0.0492,-0.48019 0.0492,-1.06709 z m 20.12038,-4.61051 c 0.0414,-0.067 0.2295,-0.121818 0.41798,-0.121818 0.18848,0 0.43333,-0.04838 0.5441,-0.107522 0.11077,-0.05914 0.29274,-0.135791 0.40438,-0.170342 0.19224,-0.0595 0.20294,-1.071034 0.20216,-19.11755 -4.5e-4,-10.480101 -0.0333,-19.3987961 -0.0731,-19.8193221 l -0.0722,-0.7645933 -0.47789,0.112397 c -0.90104,0.2119193 -3.56976,0.2312763 -4.62498,0.03355 -0.53596,-0.100431 -1.0939,-0.182601 -1.23987,-0.182601 h -0.26539 l 0.0743,2.2907703 c 0.0821,2.5318141 0.18999,7.1094801 0.52839,22.4147521 0.12483,5.645733 0.26094,11.221407 0.30248,12.390386 l 0.0755,2.125416 0.45538,0.329875 c 0.25045,0.181431 0.66193,0.364772 0.91438,0.407423 0.25245,0.04265 0.48278,0.116023 0.51184,0.163049 0.0857,0.138663 2.23757,0.153611 2.32254,0.01613 z m 2.23446,-2.467517 c -0.0245,-0.272809 -0.0449,-0.07846 -0.0453,0.431891 -4.2e-4,0.510348 0.0196,0.733556 0.0446,0.496016 0.0249,-0.23754 0.0253,-0.655098 7.6e-4,-0.927907 z m -0.0851,-37.2131791 c 0,-0.2514093 -0.0522,-0.4571083 -0.11599,-0.4571083 -0.0638,0 -0.11599,0.237957 -0.11599,0.5287933 0,0.322993 0.0451,0.500894 0.11599,0.457108 0.0638,-0.03943 0.11599,-0.277383 0.11599,-0.528793 z m 16.77652,40.0583401 c -0.13062,-0.130624 -0.0796,-0.267486 0.0998,-0.267486 0.0957,0 0.17399,0.04912 0.17399,0.109143 0,0.146259 -0.18113,0.25101 -0.2738,0.158343 z m -0.331,-0.589189 c -0.32876,-0.38311 -0.37405,-0.52564 -0.12459,-0.392131 0.31718,0.169747 0.52988,0.448098 0.40256,0.52679 -0.0584,0.03607 -0.18345,-0.02452 -0.27797,-0.134659 z M 322.21889,3.6673816 c -0.1327,-0.168694 -0.24127,-0.265492 -0.24127,-0.215105 0,0.05039 -0.10439,-0.0029 -0.23197,-0.118323 -0.12759,-0.115465 -0.23198,-0.169358 -0.23198,-0.119763 0,0.04959 -0.0848,0.01978 -0.18848,-0.06625 -0.10367,-0.08604 -0.34117,-0.140411 -0.52779,-0.120836 -0.18662,0.01957 -0.41052,-0.02351 -0.49755,-0.09574 -0.2055,-0.170548 -3.60131,-0.179145 -4.04556,-0.01024 -0.17774,0.06758 -0.42107,0.122866 -0.54074,0.122866 -0.11967,0 -0.25265,0.05674 -0.29551,0.126093 -0.0429,0.06935 -0.17638,0.100349 -0.29671,0.06888 -0.12032,-0.03146 -0.248,-0.0099 -0.28372,0.04789 -0.0357,0.0578 -0.12712,0.103363 -0.2031,0.10124 -0.22402,-0.0063 0.38931,-0.460094 0.62179,-0.460094 0.11676,0 0.24113,-0.04668 0.2764,-0.103736 0.11144,-0.180318 0.99773,-0.272028 2.7333,-0.282833 1.96094,-0.01221 2.35803,0.05069 3.33046,0.527541 0.76982,0.377498 1.16785,0.717152 0.97795,0.834519 -0.0628,0.03884 -0.22283,-0.06741 -0.35552,-0.236105 z"
       id="path6" /></g></svg>
