<?xml version="1.0" encoding="UTF-8" standalone="no"?>
<!-- Created with Inkscape (http://www.inkscape.org/) -->

<svg
   width="120mm"
   height="100mm"
   viewBox="0 0 120 100"
   version="1.1"
   id="svg1"
   xml:space="preserve"
   inkscape:version="1.3.2 (091e20e, 2023-11-25)"
   sodipodi:docname="Examples.svg"
   xmlns:inkscape="http://www.inkscape.org/namespaces/inkscape"
   xmlns:sodipodi="http://sodipodi.sourceforge.net/DTD/sodipodi-0.dtd"
   xmlns="http://www.w3.org/2000/svg"
   xmlns:svg="http://www.w3.org/2000/svg"><sodipodi:namedview
     id="namedview1"
     pagecolor="#ffffff"
     bordercolor="#000000"
     borderopacity="0.25"
     inkscape:showpageshadow="2"
     inkscape:pageopacity="0.0"
     inkscape:pagecheckerboard="0"
     inkscape:deskcolor="#d1d1d1"
     inkscape:document-units="mm"
     inkscape:zoom="0.3572001"
     inkscape:cx="761.47795"
     inkscape:cy="-132.97869"
     inkscape:window-width="1440"
     inkscape:window-height="872"
     inkscape:window-x="0"
     inkscape:window-y="28"
     inkscape:window-maximized="0"
     inkscape:current-layer="layer1"><inkscape:page
       x="0"
       y="0"
       width="120"
       height="100"
       id="page1"
       margin="0"
       bleed="0" /></sodipodi:namedview><defs
     id="defs1" /><g
     inkscape:label="Calque 1"
     inkscape:groupmode="layer"
     id="layer1"><path
       style="fill:#0969da;fill-opacity:1;stroke-width:0.719977"
       d="m 29.47789,89.883327 c -0.279394,-0.149972 -0.82978,-0.466488 -1.223075,-0.703375 -0.393302,-0.236887 -0.760267,-0.430697 -0.815475,-0.430697 -0.05522,0 -0.190607,-0.07724 -0.300879,-0.171629 -0.110271,-0.09439 -0.455651,-0.308696 -0.76751,-0.476236 -0.311857,-0.167531 -0.853459,-0.49034 -1.203562,-0.717342 -0.350104,-0.227008 -0.707825,-0.412741 -0.794934,-0.412741 -0.08711,0 -0.245167,-0.167834 -0.351249,-0.37297 -0.171124,-0.330916 -0.193169,-4.355487 -0.195538,-35.690882 -0.0021,-24.411748 0.03844,-35.394788 0.130582,-35.566884 0.07981,-0.149142 0.271497,-0.252238 0.478014,-0.257105 0.832431,-0.01961 3.995081,-0.248867 4.980124,-0.360996 0.593708,-0.06764 1.708096,-0.126804 2.476419,-0.131596 0.76833,-0.0053 1.739846,-0.06743 2.158938,-0.139208 0.419084,-0.07178 2.13353,-0.215894 3.809874,-0.320284 1.676351,-0.104432 3.505093,-0.241286 4.063874,-0.304232 0.558781,-0.06287 1.639885,-0.118501 2.402456,-0.123474 0.762564,-0.0053 2.019823,-0.09245 2.793907,-0.194297 0.774083,-0.101888 2.493237,-0.246322 3.82035,-0.320952 1.327105,-0.07464 2.898677,-0.186738 3.492385,-0.249132 0.593707,-0.06234 1.736671,-0.120463 2.53992,-0.129061 0.803251,-0.0085 1.717621,-0.06966 2.031935,-0.135593 0.314313,-0.06595 1.771597,-0.179231 3.238399,-0.251666 1.466802,-0.07241 2.978978,-0.187681 3.360378,-0.256119 0.381408,-0.06849 1.69582,-0.157433 2.920911,-0.197764 1.225091,-0.04029 2.541758,-0.127885 2.925915,-0.194552 0.384166,-0.06669 1.870019,-0.177121 3.301895,-0.245453 1.431883,-0.06828 2.905647,-0.178987 3.275039,-0.245898 0.369384,-0.0669 1.683795,-0.155737 2.920903,-0.197404 1.237108,-0.04167 2.535032,-0.131553 2.884271,-0.199726 0.349239,-0.06817 1.835092,-0.177132 3.301894,-0.242134 1.466802,-0.06499 2.974744,-0.176676 3.350975,-0.248178 1.000393,-0.19011 1.947401,-0.159098 2.439577,0.07994 0.705218,0.342443 2.206824,1.238016 2.252528,1.343414 0.02325,0.05375 0.100382,0.09765 0.171333,0.09765 0.07092,0 0.663062,0.314305 1.315816,0.698478 0.652745,0.384152 1.242053,0.698467 1.30958,0.698467 0.06754,0 0.270712,0.175839 0.451541,0.390736 l 0.328778,0.390725 v 35.413067 c 0,29.950326 -0.02707,35.440101 -0.175357,35.588409 -0.224389,0.224388 -2.254689,0.46026 -5.285467,0.61404 -1.292187,0.06558 -2.749464,0.173089 -3.2384,0.238939 -0.488929,0.06588 -1.498071,0.122662 -2.242527,0.126247 -0.74445,0.0036 -2.030286,0.09206 -2.857409,0.196597 -0.827117,0.104539 -2.61824,0.247874 -3.98027,0.318519 -1.362031,0.07063 -2.87646,0.182197 -3.365397,0.247895 -0.488929,0.06566 -1.526841,0.122374 -2.30646,0.125966 -0.77962,0.0036 -2.065449,0.09143 -2.85741,0.195223 -0.791953,0.103786 -2.554306,0.248752 -3.916336,0.322153 -1.362031,0.0734 -2.905036,0.18497 -3.428891,0.247931 -0.523863,0.063 -1.561767,0.118012 -2.306461,0.122332 -0.744695,0.0043 -2.001955,0.09246 -2.793916,0.195877 -0.791952,0.103415 -2.554305,0.247283 -3.916336,0.319705 -1.362032,0.07243 -2.905036,0.184301 -3.428891,0.248616 -0.523862,0.06429 -1.609675,0.120791 -2.412924,0.125507 -0.803249,0.0051 -1.803341,0.06718 -2.222432,0.138818 -0.419084,0.07164 -2.13353,0.217001 -3.809875,0.323054 -1.676351,0.106053 -3.505092,0.243072 -4.063874,0.304485 -0.558781,0.06142 -1.620359,0.115729 -2.35907,0.120698 -0.738704,0.0051 -1.938812,0.08934 -2.66691,0.187503 -0.728098,0.09817 -2.181041,0.214661 -3.228759,0.258889 -1.789993,0.07556 -1.935587,0.06393 -2.412917,-0.192255 z m 4.444858,-0.500867 c 0.279387,-0.06746 1.393775,-0.154198 2.476419,-0.192687 1.082644,-0.03852 2.739937,-0.153982 3.682884,-0.256651 0.94294,-0.102672 2.771681,-0.244396 4.063868,-0.314939 1.292185,-0.07056 2.778038,-0.180686 3.301893,-0.244742 0.523863,-0.06408 1.609675,-0.12033 2.412924,-0.125052 0.80325,-0.0051 1.803342,-0.06754 2.222432,-0.139641 0.419085,-0.07208 2.13353,-0.216518 3.809875,-0.320979 1.676352,-0.104454 3.505093,-0.241106 4.063875,-0.303658 0.558781,-0.06256 1.644593,-0.118141 2.412924,-0.123512 0.768324,-0.0051 1.739846,-0.06847 2.15893,-0.140252 0.419085,-0.07178 2.13353,-0.216274 3.809874,-0.321124 1.676352,-0.104846 3.53367,-0.241279 4.12737,-0.303167 0.593708,-0.06192 1.65095,-0.116075 2.349429,-0.120409 0.698478,-0.0043 1.955739,-0.09261 2.793907,-0.19618 0.838176,-0.103563 2.581198,-0.250163 3.873376,-0.32579 1.292187,-0.07563 2.83519,-0.187367 3.428891,-0.248313 0.593707,-0.06091 1.736671,-0.117845 2.539921,-0.126442 0.803249,-0.0086 1.71762,-0.06862 2.031933,-0.133347 0.314321,-0.06473 1.743021,-0.177906 3.174904,-0.251466 2.358718,-0.121165 5.300184,-0.442239 5.460826,-0.596077 0.0913,-0.08743 0.150777,-69.358681 0.05998,-69.866964 l -0.07573,-0.424038 -0.658859,0.05958 c -0.362372,0.03276 -1.773246,0.124227 -3.135277,0.203224 -1.362031,0.07899 -2.96218,0.204974 -3.555888,0.279953 -0.5937,0.07496 -1.879536,0.16213 -2.857408,0.193672 -0.977867,0.03149 -2.52087,0.141392 -3.428891,0.244064 -0.908021,0.10263 -2.708187,0.245125 -4.000372,0.316542 -1.29218,0.07146 -2.806608,0.181288 -3.36539,0.244149 -0.558781,0.06287 -1.679663,0.118353 -2.49084,0.123325 -0.811176,0.0053 -1.782691,0.06892 -2.15893,0.142124 -0.376231,0.07326 -2.08419,0.218629 -3.79546,0.323178 -1.711271,0.104538 -3.568588,0.240608 -4.127369,0.302366 -0.558782,0.06181 -1.611316,0.116328 -2.338962,0.121301 -0.727645,0.0053 -1.956329,0.09171 -2.730412,0.192738 -0.774083,0.10104 -2.521813,0.245962 -3.883844,0.322055 -1.362032,0.07612 -2.933605,0.189388 -3.492386,0.251761 -0.558781,0.06234 -1.673176,0.119933 -2.476426,0.127949 -0.80325,0.0085 -1.71762,0.06754 -2.031934,0.132221 -0.314313,0.06478 -1.771589,0.177821 -3.238392,0.251358 -1.466809,0.07358 -3.038382,0.19171 -3.492392,0.262597 -0.454011,0.07093 -1.96844,0.183875 -3.36539,0.251051 -1.396957,0.06722 -2.882809,0.174503 -3.301901,0.238477 -0.419084,0.06404 -1.283452,0.121152 -1.920812,0.127047 -0.63736,0.0053 -1.337595,0.04644 -1.556079,0.09012 l -0.397241,0.07941 0.0015,35.16193 0.0015,35.161933 1.55487,-0.0029 c 0.855182,-0.0015 1.783462,-0.05825 2.062857,-0.125738 z M 61.943975,60.933566 c -0.37392,-0.05439 -0.742527,-0.161547 -0.819125,-0.238148 -0.0766,-0.07655 -0.239112,-0.139271 -0.361141,-0.139271 -0.215985,0 -0.910425,-0.339284 -1.708793,-0.834876 -1.003122,-0.622693 -2.045008,-1.846767 -2.586251,-3.038505 -0.158619,-0.349238 -0.34942,-0.749273 -0.424002,-0.888968 -0.475725,-0.890962 -0.675655,-3.821058 -0.359621,-5.270325 0.204869,-0.939478 0.655596,-2.035244 1.395783,-3.393267 0.522264,-0.958202 3.479512,-3.464515 4.087843,-3.464515 0.108846,0 0.268745,-0.07082 0.35533,-0.157433 0.153743,-0.153743 0.8357,-0.354582 2.115805,-0.623116 1.371146,-0.287629 3.324242,-0.04877 4.381355,0.535711 0.104772,0.05799 0.432548,0.227143 0.728394,0.37602 1.120601,0.563914 2.30574,1.676357 3.046166,2.859305 0.399349,0.638034 0.797295,1.499066 0.797295,1.725106 0,0.137427 0.09739,0.432753 0.216425,0.656291 0.326171,0.612536 0.319021,3.672436 -0.01102,4.724298 -1.081492,3.446564 -3.15787,5.755018 -6.174192,6.86428 -1.071679,0.394108 -3.146948,0.530421 -4.680234,0.307413 z m 4.065056,-0.705157 c 0.191715,-0.09913 0.451419,-0.184044 0.577119,-0.188678 0.125701,-0.0042 0.514287,-0.175637 0.863527,-0.379974 0.349238,-0.204327 0.74928,-0.423953 0.888969,-0.488034 0.723779,-0.331999 2.695019,-2.468558 2.911501,-3.15568 0.04953,-0.157158 0.14332,-0.285732 0.208463,-0.285732 0.06516,0 0.118436,-0.06764 0.118436,-0.150403 0,-0.0827 0.107773,-0.382753 0.2395,-0.666735 0.775762,-1.672444 0.9677,-4.203662 0.441541,-5.822894 -0.353099,-1.086637 -1.048423,-2.419035 -1.597838,-3.061787 -0.612808,-0.716925 -2.078092,-1.854814 -2.388488,-1.854814 -0.120726,0 -0.29064,-0.08577 -0.377599,-0.190502 -0.08695,-0.10475 -0.279683,-0.192993 -0.428286,-0.196067 -0.148604,-0.0032 -0.496597,-0.0862 -0.773313,-0.184766 -0.276716,-0.0986 -0.521444,-0.160879 -0.543827,-0.138487 -0.02239,0.02237 0.10945,0.434131 0.29298,0.914997 0.597192,1.564673 0.762773,3.448972 0.471571,5.36635 -0.0782,0.514888 -0.203812,0.99779 -0.279128,1.073098 -0.07532,0.07528 -0.136948,0.231925 -0.136948,0.348009 0,0.566935 -1.327803,2.714541 -2.280153,3.687946 -0.408752,0.417783 -1.976337,1.638019 -2.104299,1.638019 -0.05284,0 -0.330937,0.107009 -0.617978,0.237788 -1.193023,0.543568 -1.492736,0.644268 -2.134358,0.717095 -1.119521,0.127068 -1.244948,0.17251 -1.244948,0.450968 0,0.141932 0.214309,0.455961 0.476236,0.697862 0.513107,0.473858 2.076529,1.452183 2.320688,1.452183 0.082,0 0.329174,0.08344 0.549278,0.185359 0.220097,0.101888 0.657346,0.209649 0.97166,0.239346 1.011129,0.09553 3.20878,-0.05471 3.575694,-0.244467 z M 60.214605,56.69058 c 0.207512,-0.108207 0.451692,-0.197085 0.542625,-0.19752 0.166321,-7.1e-4 1.175701,-0.506343 1.294763,-0.648499 0.03514,-0.04188 0.199326,-0.147636 0.364907,-0.234903 0.970565,-0.511539 2.542275,-2.315282 3.21464,-3.68923 0.714858,-1.46077 0.989428,-3.32431 0.773478,-5.249672 -0.11845,-1.056123 -0.472578,-2.332382 -0.69359,-2.499665 -0.04802,-0.03637 -0.145442,-0.219 -0.216504,-0.405908 -0.215086,-0.565737 -0.92643,-0.58956 -2.807594,-0.09404 -1.43994,0.379286 -3.310901,1.567111 -4.301697,2.731039 -0.733708,0.861901 -0.83665,1.020733 -1.35417,2.089357 -0.623104,1.286639 -0.677002,1.454844 -0.890842,2.780329 -0.201413,1.248439 -0.200686,1.392799 0.01346,2.666916 0.124534,0.740866 0.30247,1.459763 0.395419,1.597529 0.09295,0.137777 0.168993,0.327324 0.168993,0.421218 0,0.09383 0.155644,0.374769 0.345877,0.624177 l 0.345876,0.453469 1.213522,-0.0739 c 0.710971,-0.04336 1.36977,-0.155408 1.590811,-0.270665 z M 29.714878,89.065252 c 0.04053,-0.105588 0.07592,-15.867855 0.07867,-35.027254 l 0.0051,-34.835274 -0.287328,-0.258696 c -0.158035,-0.142282 -0.373049,-0.298517 -0.477828,-0.347181 -0.104771,-0.04866 -0.419083,-0.227939 -0.698471,-0.398391 -0.279394,-0.170453 -0.665143,-0.373338 -0.857226,-0.450851 -0.192083,-0.0775 -0.349239,-0.186897 -0.349239,-0.243079 0,-0.05619 -0.157157,-0.165066 -0.34924,-0.241954 -0.192082,-0.07687 -0.52068,-0.252588 -0.730222,-0.39045 -0.663709,-0.436654 -1.466931,-0.800418 -1.560585,-0.706768 -0.110229,0.110221 -0.195978,68.868502 -0.08685,69.637711 0.06011,0.423973 0.146579,0.572475 0.386224,0.663589 0.169807,0.06458 0.308741,0.163413 0.308741,0.219679 0,0.0563 0.157156,0.173112 0.349239,0.259668 0.492578,0.221968 1.099642,0.558247 1.174713,0.650729 0.03492,0.04305 0.206367,0.149107 0.380983,0.235735 0.174624,0.08663 0.488937,0.269379 0.698479,0.40611 0.209542,0.136724 0.552431,0.337669 0.761974,0.44653 0.209549,0.108867 0.523862,0.281287 0.698478,0.383165 0.400754,0.233798 0.463737,0.233452 0.554483,-0.0029 z m 3.699883,-70.674036 c 0.279394,-0.06775 1.708095,-0.177027 3.174898,-0.242792 1.466802,-0.06584 3.06695,-0.18026 3.555887,-0.254434 0.488936,-0.07411 2.003365,-0.193056 3.365396,-0.26423 1.362031,-0.07114 2.905028,-0.182072 3.428891,-0.24646 0.523855,-0.06436 1.561565,-0.120601 2.306022,-0.124926 0.744456,-0.0042 2.030292,-0.09288 2.857409,-0.196927 0.827123,-0.104008 2.618246,-0.248443 3.980278,-0.320984 1.362031,-0.07252 2.876459,-0.184543 3.365388,-0.248888 0.488937,-0.06436 1.514386,-0.119912 2.278785,-0.123495 0.764393,-0.0032 2.050229,-0.09203 2.857411,-0.196482 0.80718,-0.104432 2.553412,-0.248877 3.880517,-0.320888 1.327112,-0.07199 2.87011,-0.182497 3.428891,-0.245506 0.558781,-0.06298 1.612813,-0.118608 2.34228,-0.12358 0.729473,-0.0053 1.986733,-0.09372 2.793915,-0.197319 0.80718,-0.103584 2.553412,-0.247945 3.880517,-0.320867 1.327113,-0.07294 2.870109,-0.184161 3.428891,-0.247181 0.558789,-0.06298 1.620365,-0.118629 2.35907,-0.123612 0.738704,-0.0053 1.938819,-0.09182 2.666917,-0.192951 0.728098,-0.101146 2.266761,-0.218216 3.41925,-0.260105 1.831111,-0.06658 2.998676,-0.179889 4.032117,-0.39132 0.365935,-0.07485 0.365935,-0.278299 0,-0.440778 -0.157157,-0.06976 -0.51433,-0.265439 -0.793724,-0.434799 -0.279388,-0.169372 -0.622277,-0.369394 -0.761974,-0.44449 -0.139697,-0.07506 -0.482586,-0.275118 -0.761973,-0.44449 -0.279394,-0.16936 -0.631017,-0.364495 -0.781392,-0.433632 -0.150374,-0.06913 -0.3109,-0.186367 -0.356733,-0.26053 -0.04587,-0.07411 -0.179966,-0.135179 -0.298078,-0.135603 -0.118112,-4.35e-4 -0.384346,-0.08916 -0.591634,-0.197308 -0.31368,-0.163572 -0.516001,-0.173782 -1.206459,-0.06086 -0.456271,0.07464 -1.981327,0.18519 -3.389019,0.24575 -1.407684,0.06054 -2.619232,0.147064 -2.692324,0.19224 -0.07309,0.04517 -1.378721,0.138307 -2.901393,0.206967 -1.522672,0.0687 -3.070724,0.179814 -3.440108,0.247001 -0.369392,0.06722 -1.683803,0.156256 -2.920911,0.197923 -1.237107,0.04167 -2.535032,0.131617 -2.884271,0.199874 -0.34924,0.06828 -1.77794,0.175065 -3.174897,0.237353 -1.396958,0.06224 -2.939955,0.174036 -3.428891,0.248337 -0.488937,0.07432 -2.031934,0.192431 -3.428892,0.262512 -1.396957,0.07008 -2.939954,0.181299 -3.428891,0.247161 -0.488936,0.06584 -1.498071,0.122668 -2.242527,0.126262 -0.744457,0.0032 -2.030292,0.0916 -2.857408,0.195601 -0.827117,0.104009 -2.618241,0.248433 -3.980272,0.320984 -1.362031,0.07252 -2.876459,0.184543 -3.365396,0.248878 -0.488936,0.06436 -1.526841,0.119922 -2.306461,0.123505 -0.77962,0.0032 -2.065456,0.09107 -2.857408,0.194542 -0.791954,0.103372 -2.554307,0.247287 -3.916338,0.319711 -1.362037,0.07241 -2.905036,0.184299 -3.428891,0.248613 -0.523862,0.06425 -1.609673,0.120791 -2.412924,0.12552 -0.803249,0.0053 -1.803347,0.06743 -2.222432,0.139377 -0.419084,0.07188 -1.607356,0.184045 -2.640602,0.249122 -1.033239,0.0651 -1.938668,0.155429 -2.012062,0.200786 -0.111575,0.06902 1.838692,1.316621 2.421362,1.549044 0.09989,0.03987 0.470051,0.262396 0.822581,0.494554 0.352522,0.232179 0.706693,0.422129 0.787043,0.422129 0.08035,0 0.217238,0.08567 0.30419,0.190491 0.124901,0.150499 0.481441,0.189866 1.698245,0.18747 0.847083,-0.0011 1.768746,-0.05842 2.048134,-0.126242 z"
       id="path9" /></g></svg>
